<svg xmlns="http://www.w3.org/2000/svg" width="45" height="42" viewBox="0 0 45 42" fill="none">
<mask id="mask0_558_1379" style="mask-type:alpha" maskUnits="userSpaceOnUse" x="0" y="0" width="40" height="40">
<rect width="40" height="40" fill="#D9D9D9"/>
</mask>
<g mask="url(#mask0_558_1379)">
<path d="M20 12.5C19.1944 12.5 18.5069 12.2152 17.9375 11.6458C17.3681 11.0763 17.0833 10.3888 17.0833 9.58329C17.0833 8.77774 17.3681 8.09024 17.9375 7.52079C18.5069 6.95135 19.1944 6.66663 20 6.66663C20.8056 6.66663 21.4931 6.95135 22.0625 7.52079C22.6319 8.09024 22.9167 8.77774 22.9167 9.58329C22.9167 10.3888 22.6319 11.0763 22.0625 11.6458C21.4931 12.2152 20.8056 12.5 20 12.5ZM16.6667 33.3333V25H15V17.5C15 16.5833 15.3264 15.7986 15.9792 15.1458C16.6319 14.493 17.4167 14.1666 18.3333 14.1666H21.6667C22.5833 14.1666 23.3681 14.493 24.0208 15.1458C24.6736 15.7986 25 16.5833 25 17.5V25H23.3333V33.3333H16.6667Z" fill="#14B6B0"/>
</g>
<mask id="mask1_558_1379" style="mask-type:alpha" maskUnits="userSpaceOnUse" x="13" y="10" width="32" height="32">
<rect x="13" y="10" width="32" height="32" fill="#D9D9D9"/>
</mask>
<g mask="url(#mask1_558_1379)">
<path d="M26.333 39.3334V31.3334H22.333L26.3997 21.0667C26.6219 20.5334 26.9663 20.1111 27.433 19.8C27.8997 19.4889 28.4219 19.3334 28.9997 19.3334C29.5775 19.3334 30.0997 19.4889 30.5663 19.8C31.033 20.1111 31.3775 20.5334 31.5997 21.0667L35.6663 31.3334H31.6663V39.3334H26.333ZM28.9997 18C28.2663 18 27.6386 17.7389 27.1163 17.2167C26.5941 16.6945 26.333 16.0667 26.333 15.3334C26.333 14.6 26.5941 13.9722 27.1163 13.45C27.6386 12.9278 28.2663 12.6667 28.9997 12.6667C29.733 12.6667 30.3608 12.9278 30.883 13.45C31.4052 13.9722 31.6663 14.6 31.6663 15.3334C31.6663 16.0667 31.4052 16.6945 30.883 17.2167C30.3608 17.7389 29.733 18 28.9997 18Z" fill="#14B6B0"/>
</g>
</svg>