<svg xmlns="http://www.w3.org/2000/svg" width="26" height="26" viewBox="0 0 26 26" fill="none">
<path d="M0.249222 25.4812C0.3816 25.641 0.559823 25.7719 0.768301 25.8623C0.97678 25.9528 1.20917 26 1.44513 26H24.5546C24.7908 26.0001 25.0234 25.9529 25.2321 25.8624C25.4408 25.7719 25.6192 25.6408 25.7516 25.4808C25.8841 25.3208 25.9665 25.1366 25.9917 24.9444C26.017 24.7522 25.9842 24.5579 25.8963 24.3785L21.0246 14.4265C22.3336 12.5488 23.0503 10.4339 23.1102 8.27273V1.18182C23.1102 0.86838 22.958 0.56778 22.6872 0.346146C22.4163 0.124513 22.0489 0 21.6659 0C21.2828 0 20.9154 0.124513 20.6446 0.346146C20.3737 0.56778 20.2215 0.86838 20.2215 1.18182V4.59136C18.8301 4.19641 17.36 4.01998 15.8885 4.07136C15.3128 4.12999 14.7585 4.28644 14.261 4.53066C13.7636 4.77489 13.334 5.1015 12.9998 5.48955C12.6657 5.1015 12.2361 4.77489 11.7387 4.53066C11.2412 4.28644 10.6869 4.12999 10.1112 4.07136C8.6397 4.01998 7.16961 4.19641 5.77815 4.59136V1.18182C5.77815 0.86838 5.62598 0.56778 5.35511 0.346146C5.08425 0.124513 4.71687 0 4.33381 0C3.95075 0 3.58338 0.124513 3.31251 0.346146C3.04164 0.56778 2.88947 0.86838 2.88947 1.18182V8.27273C2.94935 10.4339 3.66613 12.5488 4.9751 14.4265L0.103344 24.3785C0.0155605 24.5581 -0.0170442 24.7525 0.00838957 24.9447C0.0338234 25.137 0.116518 25.3212 0.249222 25.4812ZM7.99232 14.6215C8.11089 14.3803 8.12901 14.114 8.0439 13.8636C7.95878 13.6132 7.77516 13.3927 7.52147 13.2364C6.78919 12.7861 5.77815 9.90954 5.77815 8.27273C5.77815 7.19727 6.08868 6.435 9.99562 6.422C10.4 6.55318 11.3966 7.69482 12.2733 8.112C12.4939 8.21705 12.7446 8.27239 12.9998 8.27239C13.2551 8.27239 13.5058 8.21705 13.7263 8.112C14.7114 7.63927 15.3946 6.734 15.8929 6.435C19.9153 6.435 20.2259 7.19727 20.2259 8.27273C20.2259 9.90954 19.2148 12.7861 18.4826 13.2364C18.2292 13.3927 18.0458 13.6129 17.9607 13.8631C17.8755 14.1132 17.8935 14.3793 18.0117 14.6203L22.4198 23.6364H3.57987L7.99232 14.6215Z" fill="#818369"/>
</svg>