<svg xmlns="http://www.w3.org/2000/svg" width="32" height="32" viewBox="0 0 32 32" fill="none">
<mask id="mask0_532_3128" style="mask-type:alpha" maskUnits="userSpaceOnUse" x="0" y="0" width="32" height="32">
<rect width="32" height="32" fill="#D9D9D9"/>
</mask>
<g mask="url(#mask0_532_3128)">
<path d="M13.333 29.3334V21.3334H9.33301L13.3997 11.0667C13.6219 10.5334 13.9663 10.1111 14.433 9.80002C14.8997 9.48891 15.4219 9.33335 15.9997 9.33335C16.5775 9.33335 17.0997 9.48891 17.5663 9.80002C18.033 10.1111 18.3775 10.5334 18.5997 11.0667L22.6663 21.3334H18.6663V29.3334H13.333ZM15.9997 8.00002C15.2663 8.00002 14.6386 7.73891 14.1163 7.21669C13.5941 6.69446 13.333 6.06669 13.333 5.33335C13.333 4.60002 13.5941 3.97224 14.1163 3.45002C14.6386 2.9278 15.2663 2.66669 15.9997 2.66669C16.733 2.66669 17.3608 2.9278 17.883 3.45002C18.4052 3.97224 18.6663 4.60002 18.6663 5.33335C18.6663 6.06669 18.4052 6.69446 17.883 7.21669C17.3608 7.73891 16.733 8.00002 15.9997 8.00002Z" fill="#FE9651"/>
</g>
</svg>