<svg xmlns="http://www.w3.org/2000/svg" width="24" height="25" viewBox="0 0 24 25" fill="none">
<mask id="mask0_440_1373" style="mask-type:alpha" maskUnits="userSpaceOnUse" x="0" y="0" width="24" height="25">
<rect y="0.33252" width="24" height="24" fill="#D9D9D9"/>
</mask>
<g mask="url(#mask0_440_1373)">
<path d="M5 22.3325C4.45 22.3325 3.97917 22.1367 3.5875 21.745C3.19583 21.3534 3 20.8825 3 20.3325V6.33252C3 5.78252 3.19583 5.31169 3.5875 4.92002C3.97917 4.52835 4.45 4.33252 5 4.33252H6V2.33252H8V4.33252H16V2.33252H18V4.33252H19C19.55 4.33252 20.0208 4.52835 20.4125 4.92002C20.8042 5.31169 21 5.78252 21 6.33252V20.3325C21 20.8825 20.8042 21.3534 20.4125 21.745C20.0208 22.1367 19.55 22.3325 19 22.3325H5ZM5 20.3325H19V10.3325H5V20.3325ZM5 8.33252H19V6.33252H5V8.33252ZM12 14.3325C11.7167 14.3325 11.4792 14.2367 11.2875 14.045C11.0958 13.8534 11 13.6159 11 13.3325C11 13.0492 11.0958 12.8117 11.2875 12.62C11.4792 12.4284 11.7167 12.3325 12 12.3325C12.2833 12.3325 12.5208 12.4284 12.7125 12.62C12.9042 12.8117 13 13.0492 13 13.3325C13 13.6159 12.9042 13.8534 12.7125 14.045C12.5208 14.2367 12.2833 14.3325 12 14.3325ZM8 14.3325C7.71667 14.3325 7.47917 14.2367 7.2875 14.045C7.09583 13.8534 7 13.6159 7 13.3325C7 13.0492 7.09583 12.8117 7.2875 12.62C7.47917 12.4284 7.71667 12.3325 8 12.3325C8.28333 12.3325 8.52083 12.4284 8.7125 12.62C8.90417 12.8117 9 13.0492 9 13.3325C9 13.6159 8.90417 13.8534 8.7125 14.045C8.52083 14.2367 8.28333 14.3325 8 14.3325ZM16 14.3325C15.7167 14.3325 15.4792 14.2367 15.2875 14.045C15.0958 13.8534 15 13.6159 15 13.3325C15 13.0492 15.0958 12.8117 15.2875 12.62C15.4792 12.4284 15.7167 12.3325 16 12.3325C16.2833 12.3325 16.5208 12.4284 16.7125 12.62C16.9042 12.8117 17 13.0492 17 13.3325C17 13.6159 16.9042 13.8534 16.7125 14.045C16.5208 14.2367 16.2833 14.3325 16 14.3325ZM12 18.3325C11.7167 18.3325 11.4792 18.2367 11.2875 18.045C11.0958 17.8534 11 17.6159 11 17.3325C11 17.0492 11.0958 16.8117 11.2875 16.62C11.4792 16.4284 11.7167 16.3325 12 16.3325C12.2833 16.3325 12.5208 16.4284 12.7125 16.62C12.9042 16.8117 13 17.0492 13 17.3325C13 17.6159 12.9042 17.8534 12.7125 18.045C12.5208 18.2367 12.2833 18.3325 12 18.3325ZM8 18.3325C7.71667 18.3325 7.47917 18.2367 7.2875 18.045C7.09583 17.8534 7 17.6159 7 17.3325C7 17.0492 7.09583 16.8117 7.2875 16.62C7.47917 16.4284 7.71667 16.3325 8 16.3325C8.28333 16.3325 8.52083 16.4284 8.7125 16.62C8.90417 16.8117 9 17.0492 9 17.3325C9 17.6159 8.90417 17.8534 8.7125 18.045C8.52083 18.2367 8.28333 18.3325 8 18.3325ZM16 18.3325C15.7167 18.3325 15.4792 18.2367 15.2875 18.045C15.0958 17.8534 15 17.6159 15 17.3325C15 17.0492 15.0958 16.8117 15.2875 16.62C15.4792 16.4284 15.7167 16.3325 16 16.3325C16.2833 16.3325 16.5208 16.4284 16.7125 16.62C16.9042 16.8117 17 17.0492 17 17.3325C17 17.6159 16.9042 17.8534 16.7125 18.045C16.5208 18.2367 16.2833 18.3325 16 18.3325Z" fill="#5D6679"/>
</g>
</svg>