<svg xmlns="http://www.w3.org/2000/svg" width="24" height="25" viewBox="0 0 24 25" fill="none">
<mask id="mask0_440_1367" style="mask-type:alpha" maskUnits="userSpaceOnUse" x="0" y="0" width="24" height="25">
<rect y="0.33252" width="24" height="24" fill="#D9D9D9"/>
</mask>
<g mask="url(#mask0_440_1367)">
<path d="M13 11.3325H19.95C19.7 9.49919 18.9375 7.94502 17.6625 6.67002C16.3875 5.39502 14.8333 4.63252 13 4.38252V11.3325ZM11 20.2825V4.38252C8.98333 4.63252 7.3125 5.51169 5.9875 7.02002C4.6625 8.52835 4 10.2992 4 12.3325C4 14.3659 4.6625 16.1367 5.9875 17.645C7.3125 19.1534 8.98333 20.0325 11 20.2825ZM13 20.2825C14.8333 20.0492 16.3917 19.2909 17.675 18.0075C18.9583 16.7242 19.7167 15.1659 19.95 13.3325H13V20.2825ZM12 22.3325C10.6167 22.3325 9.31667 22.07 8.1 21.545C6.88333 21.02 5.825 20.3075 4.925 19.4075C4.025 18.5075 3.3125 17.4492 2.7875 16.2325C2.2625 15.0159 2 13.7159 2 12.3325C2 10.9492 2.2625 9.64919 2.7875 8.43252C3.3125 7.21585 4.025 6.15752 4.925 5.25752C5.825 4.35752 6.88333 3.64502 8.1 3.12002C9.31667 2.59502 10.6167 2.33252 12 2.33252C13.3833 2.33252 14.6792 2.59502 15.8875 3.12002C17.0958 3.64502 18.1542 4.36169 19.0625 5.27002C19.9708 6.17835 20.6875 7.23669 21.2125 8.44502C21.7375 9.65335 22 10.9492 22 12.3325C22 13.6992 21.7375 14.9909 21.2125 16.2075C20.6875 17.4242 19.975 18.4867 19.075 19.395C18.175 20.3034 17.1167 21.02 15.9 21.545C14.6833 22.07 13.3833 22.3325 12 22.3325Z" fill="#5D6679"/>
</g>
</svg>