<svg xmlns="http://www.w3.org/2000/svg" width="181" height="164" viewBox="0 0 181 164" fill="none">
  <g opacity="0.7" clip-path="url(#clip0_519_1802)">
    <path d="M33.2488 58.5298C31.5654 57.2503 29.9891 56.0446 28.4047 54.8553C24.6746 52.042 20.928 49.2369 17.1979 46.4154C15.7702 45.3327 15.5887 44.5618 16.1334 42.8557C17.6518 38.1478 19.129 33.4316 20.6227 28.7154C20.7547 28.2971 20.862 27.8706 21.0188 27.4687C21.3076 26.7305 21.7615 26.181 22.5867 25.9431C26.5561 24.8194 30.5173 23.6711 34.4784 22.5228C37.961 21.5222 41.4435 20.5133 44.9342 19.5127C46.7085 19.0042 48.4745 18.4874 50.2488 17.9953C51.2391 17.7246 52.0066 18.1594 52.7163 18.7909C55.225 21.0219 57.7502 23.2446 60.2672 25.4756C61.7609 26.7879 63.2381 28.1166 64.7483 29.4044C65.7056 30.2246 65.8871 31.2006 65.4827 32.3161C63.3041 38.3364 61.1172 44.3485 58.9386 50.3688C58.8396 50.6313 58.8065 50.9183 58.7075 51.3202C59.2027 51.3448 59.6318 51.3859 60.0527 51.3777C68.5609 51.271 76.6978 52.9114 84.4468 56.4301C84.9667 56.668 85.2968 56.5942 85.6929 56.2251C91.3375 50.9512 97.8322 47.0306 105.119 44.4387C109.369 42.9213 113.759 41.9207 118.265 41.4368C122.812 40.9447 127.351 40.9775 131.865 41.5844C138.715 42.503 145.209 44.5782 151.283 47.8918C163.125 54.3468 171.642 63.771 176.791 76.1889C178.879 81.2331 180.241 86.466 180.67 91.8958C180.926 95.1356 181.14 98.4328 180.868 101.664C180.29 108.644 178.541 115.354 175.438 121.694C170.222 132.357 162.473 140.649 152.092 146.489C147.9 148.851 143.451 150.647 138.789 151.853C132.789 153.403 126.683 154.051 120.485 153.616C113.702 153.141 107.199 151.5 101.001 148.728C100.357 148.441 100.011 148.588 99.5569 149.007C93.9123 154.24 87.4259 158.103 80.172 160.695C73.2483 163.163 66.1099 164.238 58.7653 163.959C52.807 163.729 47.0386 162.573 41.4435 160.506C29.7828 156.192 20.5236 148.851 13.6494 138.565C9.75424 132.734 7.14648 126.344 5.6528 119.504C4.34067 113.5 3.96931 107.43 4.71202 101.345C6.04891 90.4522 10.1339 80.6836 17.1154 72.1535C21.4562 66.8549 26.5644 62.4668 32.5309 59.063C32.7289 58.9482 32.894 58.7923 33.2241 58.5381L33.2488 58.5298ZM96.1239 146.292C95.8186 146.095 95.67 146.005 95.538 145.906C92.8477 143.995 90.1327 142.117 87.4919 140.148C86.8317 139.656 86.4521 139.558 85.7754 140.075C80.0235 144.455 73.5123 147.055 66.3492 148.014C60.7294 148.769 55.192 148.318 49.7289 146.743C44.4556 145.217 39.6527 142.806 35.411 139.361C26.977 132.521 22.0338 123.712 20.5154 112.991C19.8552 108.324 20.0532 103.674 21.0435 99.089C22.2649 93.4706 24.5921 88.3197 28.0416 83.6937C34.6352 74.8601 43.4323 69.5042 54.2925 67.6013C61.4391 66.3546 68.4866 67.0272 75.3031 69.5862C84.1579 72.908 91.0982 78.5839 96.0414 86.5973C99.3258 91.9122 101.158 97.7193 101.793 103.936C102.445 110.391 101.447 116.592 99.1113 122.604C98.8472 123.293 98.9215 123.679 99.4579 124.089C101.059 125.311 102.602 126.615 104.253 127.763C105.482 128.625 106.844 129.297 108.156 130.052C117.943 111.458 115.096 81.1429 90.1574 64.4927C64.8886 47.6293 31.0867 55.8396 16.1168 81.0691C0.668347 107.111 10.1916 140.124 37.0862 153.846C50.6697 160.777 64.773 161.556 79.1405 156.454C85.437 154.215 91.09 150.852 96.1157 146.275L96.1239 146.292ZM89.2414 58.7759C89.5385 58.9892 89.6293 59.063 89.7201 59.1204C92.5259 61.1135 95.3564 63.082 98.1293 65.1243C98.7399 65.5754 99.0948 65.3868 99.5734 65.0259C105.994 60.2523 113.19 57.521 121.203 56.8812C128.886 56.2743 136.181 57.6686 142.956 61.2365C155.657 67.9212 163.026 78.4772 164.949 92.593C166.038 100.565 164.644 108.283 160.955 115.493C156.028 125.131 148.444 131.881 138.236 135.613C131.378 138.123 124.289 138.688 117.11 137.425C111.185 136.384 105.688 134.153 100.795 130.642C90.537 123.285 84.8099 113.328 83.5803 100.803C82.9613 94.5615 83.9186 88.5412 86.188 82.7341C86.5594 81.7827 86.3201 81.3234 85.6599 80.741C83.3162 78.6905 80.7909 76.9271 78.0346 75.4589C77.3167 75.0734 76.9618 75.1554 76.64 75.8936C74.8575 79.9618 73.4711 84.1613 72.7283 88.5412C71.672 94.7747 71.7133 101.008 72.9429 107.234C74.057 112.877 75.9468 118.249 78.8929 123.187C87.7807 138.073 100.943 146.644 118.15 149.023C125.668 150.065 133.078 149.195 140.291 146.915C147.677 144.578 154.237 140.78 159.907 135.506C169.248 126.804 174.679 116.084 176.321 103.502C177.344 95.6605 176.412 87.9588 173.829 80.5031C170.759 71.6449 165.667 64.0908 158.479 58.0049C150.862 51.5417 142.098 47.5309 132.179 45.9889C125.362 44.9308 118.603 45.2425 111.927 46.8665C105.086 48.5233 98.7894 51.4187 93.1283 55.6181C91.8244 56.586 90.5948 57.6522 89.2249 58.7595L89.2414 58.7759ZM112.406 131.668C112.538 131.766 112.596 131.84 112.67 131.864C119.701 134.218 126.823 134.382 133.961 132.488C139.325 131.069 144.128 128.51 148.312 124.852C155.492 118.577 159.618 110.678 160.715 101.279C161.343 95.9558 160.74 90.6819 158.949 85.6048C156.259 77.9687 151.531 71.8664 144.805 67.306C139.895 63.976 134.465 61.9911 128.589 61.3021C123.439 60.7034 118.348 61.1381 113.38 62.7211C109.509 63.9596 105.895 65.7148 102.627 68.1427C102.099 68.5364 102.033 68.7988 102.503 69.2909C107.999 75.1308 112.026 81.8647 114.659 89.4106C116.309 94.135 117.399 99.007 117.58 104.002C117.704 107.513 117.539 111.048 117.258 114.558C116.912 118.93 115.74 123.146 114.188 127.247C113.627 128.731 112.992 130.199 112.398 131.668H112.406ZM24.394 108.013C24.5591 109.727 24.6251 111.745 24.9717 113.721C26.2425 120.956 29.3537 127.337 34.4702 132.66C40.2221 138.639 47.2202 142.297 55.4643 143.61C60.1929 144.364 64.8803 144.167 69.5182 143.093C74.2715 141.994 78.6288 139.952 82.59 137.105C83.4482 136.482 83.4152 136.515 82.722 135.654C80.956 133.48 79.124 131.356 77.49 129.084C73.9745 124.187 71.5565 118.733 69.8483 112.983C68.8167 109.514 68.1813 105.962 67.8594 102.353C67.3148 96.1116 67.6779 89.9273 69.3366 83.8906C70.2609 80.536 71.5895 77.2961 72.7696 74.0153C72.9594 73.4822 72.8851 73.2689 72.3487 73.1541C69.6007 72.5882 66.8774 71.727 64.1046 71.5055C55.4973 70.8083 47.4842 72.785 40.3872 77.7473C29.9809 85.0225 24.8314 95.1356 24.3775 108.021L24.394 108.013ZM60.0444 34.4568C47.4842 38.0575 35.2047 41.568 22.8261 45.1113C23.0571 45.3492 23.1561 45.4968 23.2882 45.5952C27.8765 49.0647 32.4649 52.5424 37.0862 55.9872C37.3668 56.1923 37.9197 56.2169 38.2746 56.102C40.0736 55.4869 41.8066 54.6749 43.6304 54.1664C46.758 53.3051 49.927 52.5998 53.0876 51.878C53.69 51.7385 53.9871 51.4515 54.1852 50.9101C55.8274 46.3416 57.4862 41.7731 59.1284 37.1963C59.4255 36.3679 59.6896 35.5231 60.0444 34.4486V34.4568ZM21.2829 41.0841C33.9916 37.4424 46.4444 33.8745 58.9303 30.2984C58.823 30.0277 58.8148 29.9539 58.7735 29.9211C56.0832 27.5343 53.4012 25.1475 50.6779 22.7935C50.4551 22.5967 49.9517 22.5721 49.6381 22.6623C41.6828 24.926 33.7357 27.239 25.7722 29.4864C25.0294 29.6996 24.7241 30.0933 24.5178 30.7495C23.8411 32.9148 23.1314 35.072 22.4464 37.2291C22.0751 38.4102 21.7285 39.5995 21.2829 41.0759V41.0841ZM89.8768 85.5638C87.1618 93.0933 87.0545 100.656 89.3817 108.218C90.6608 112.393 92.6414 116.239 95.4885 119.734C97.3123 115.362 98.8142 106.914 96.3715 98.195C95.0676 93.5526 93.0293 89.2957 89.8768 85.5638Z" fill="#515527"/>
    <path d="M20.3756 1.95209C22.2242 5.88087 25.1703 7.64431 29.346 7.44746C25.88 9.30933 24.3698 12.1554 24.5183 16.2319C22.3314 12.5327 19.3936 10.8267 15.2344 11.4911C19.1708 9.5964 20.9533 6.54524 20.3674 1.95209H20.3756Z" fill="#515527"/>
    <path d="M59.7308 13.8779C57.9483 10.0639 54.8867 8.47272 50.7109 8.71878C54.342 6.88152 55.8769 3.94519 55.7284 0C57.7502 3.6089 60.7706 5.15909 64.8803 4.67517C60.9357 6.54524 59.3099 9.62101 59.7391 13.8779H59.7308Z" fill="#515527"/>
    <path d="M5.22377 30.405C6.00775 32.0864 7.10532 33.5054 8.76405 34.4486C10.398 35.3836 12.1805 35.6625 14.0703 35.6133C10.4063 37.6802 8.86308 40.6986 9.48201 45.0703C8.57425 43.0279 7.40241 41.4942 5.60338 40.5427C3.84562 39.6159 1.98883 39.3042 0 39.6815C3.94465 37.7868 5.71066 34.7603 5.22377 30.3968V30.405Z" fill="#515527"/>
    <path d="M96.1239 146.3C91.0982 150.877 85.4453 154.24 79.1487 156.479C64.7731 161.589 50.6697 160.809 37.0945 153.87C10.1999 140.148 0.676622 107.135 16.1251 81.0937C31.095 55.856 64.8968 47.6457 90.1657 64.5173C115.104 81.1675 117.952 111.474 108.164 130.076C106.852 129.322 105.499 128.641 104.261 127.788C102.61 126.64 101.067 125.336 99.4662 124.113C98.9297 123.703 98.8555 123.318 99.1196 122.629C101.455 116.617 102.454 110.424 101.802 103.961C101.174 97.7438 99.3341 91.9368 96.0497 86.6218C91.0982 78.6002 84.1662 72.9326 75.3114 69.6108C68.4949 67.0518 61.4473 66.371 54.3008 67.6259C43.4406 69.5206 34.6435 74.8847 28.0498 83.7183C24.6003 88.3443 22.2732 93.4952 21.0518 99.1136C20.0533 103.707 19.8552 108.349 20.5237 113.016C22.0421 123.728 26.977 132.545 35.4192 139.386C39.6692 142.831 44.4721 145.242 49.7372 146.767C55.192 148.342 60.7294 148.802 66.3575 148.039C73.5206 147.071 80.0317 144.479 85.7837 140.099C86.4604 139.582 86.84 139.681 87.5002 140.173C90.1409 142.142 92.856 144.02 95.5463 145.931C95.6866 146.029 95.8268 146.111 96.1322 146.316L96.1239 146.3Z" fill="#DBDEB9"/>
    <path d="M89.2417 58.7759C90.6116 57.6686 91.8412 56.6023 93.1451 55.6345C98.8062 51.435 105.103 48.5397 111.944 46.8829C118.62 45.2671 125.371 44.9472 132.195 46.0053C142.115 47.5473 150.879 51.5581 158.496 58.0213C165.675 64.1154 170.775 71.6613 173.845 80.5195C176.428 87.9834 177.361 95.6769 176.338 103.518C174.695 116.1 169.265 126.82 159.924 135.522C154.254 140.805 147.693 144.602 140.308 146.932C133.095 149.212 125.693 150.073 118.166 149.039C100.96 146.661 87.7975 138.09 78.9097 123.203C75.9636 118.265 74.0738 112.893 72.9597 107.25C71.7301 101.025 71.6806 94.7993 72.7451 88.5575C73.4879 84.1776 74.8825 79.9864 76.6568 75.91C76.9786 75.1718 77.3335 75.0898 78.0514 75.4753C80.8077 76.9434 83.333 78.7069 85.6767 80.7574C86.3369 81.3397 86.5762 81.799 86.2048 82.7505C83.9354 88.5657 82.9781 94.5778 83.5971 100.82C84.8349 113.344 90.5538 123.31 100.812 130.659C105.705 134.169 111.193 136.4 117.127 137.442C124.306 138.705 131.395 138.139 138.253 135.629C148.469 131.889 156.045 125.147 160.972 115.509C164.66 108.292 166.047 100.582 164.966 92.6093C163.043 78.4936 155.682 67.9376 142.973 61.2529C136.19 57.685 128.895 56.2907 121.22 56.8976C113.207 57.5292 106.019 60.2687 99.5902 65.0423C99.1033 65.4031 98.7567 65.5836 98.146 65.1407C95.3732 63.0984 92.5427 61.1299 89.7368 59.1368C89.6461 59.0712 89.5553 59.0055 89.2582 58.7923L89.2417 58.7759Z" fill="#DBDEB9"/>
    <path d="M112.406 131.667C113 130.199 113.635 128.739 114.197 127.247C115.748 123.146 116.92 118.93 117.267 114.558C117.539 111.056 117.712 107.512 117.588 104.002C117.407 99.0069 116.318 94.1349 114.667 89.4105C112.035 81.8646 108.007 75.1308 102.511 69.2909C102.041 68.7906 102.107 68.5281 102.635 68.1426C105.903 65.7148 109.518 63.9596 113.388 62.7211C118.348 61.1381 123.448 60.6952 128.597 61.3021C134.465 61.9911 139.903 63.976 144.813 67.306C151.539 71.8663 156.276 77.9687 158.958 85.6048C160.748 90.6901 161.351 95.9558 160.724 101.279C159.626 110.678 155.5 118.577 148.32 124.852C144.136 128.51 139.342 131.061 133.969 132.488C126.831 134.382 119.709 134.218 112.678 131.864C112.604 131.84 112.546 131.766 112.414 131.667H112.406Z" fill="#303030"/>
    <path d="M24.3945 108.013C24.8484 95.1274 29.9979 85.0143 40.4042 77.739C47.5095 72.7768 55.5143 70.8001 64.1216 71.4973C66.8944 71.7187 69.6177 72.5882 72.3658 73.1459C72.9022 73.2525 72.9847 73.474 72.7866 74.0071C71.5983 77.2879 70.2779 80.5277 69.3536 83.8824C67.6866 89.9191 67.3318 96.1034 67.8765 102.345C68.19 105.954 68.8337 109.506 69.8653 112.975C71.5735 118.733 73.9915 124.179 77.507 129.076C79.1327 131.348 80.9648 133.472 82.739 135.646C83.4322 136.499 83.4652 136.474 82.607 137.097C78.6458 139.952 74.2886 141.986 69.5352 143.085C64.8973 144.159 60.21 144.356 55.4813 143.602C47.2372 142.289 40.2392 138.631 34.4872 132.652C29.3707 127.329 26.2596 120.956 24.9887 113.713C24.6421 111.745 24.5761 109.719 24.411 108.005L24.3945 108.013Z" fill="#303030"/>
    <path d="M60.0445 34.4568C59.6897 35.5313 59.4256 36.3761 59.1285 37.2045C57.4863 41.773 55.8275 46.3416 54.1853 50.9183C53.9955 51.4514 53.6902 51.7467 53.0877 51.8861C49.9271 52.6079 46.7499 53.3133 43.6305 54.1745C41.8067 54.6748 40.0737 55.4951 38.2747 56.1102C37.9281 56.225 37.3669 56.2004 37.0863 55.9954C32.465 52.5587 27.8766 49.081 23.2883 45.6034C23.1563 45.5049 23.049 45.3573 22.8262 45.1195C35.213 41.5762 47.4844 38.0575 60.0445 34.465V34.4568Z" fill="#B7BB83"/>
    <path d="M21.291 41.0841C21.7366 39.5995 22.0832 38.4102 22.4546 37.2373C23.1396 35.072 23.8493 32.9231 24.526 30.7577C24.7323 30.1015 25.0294 29.7078 25.7803 29.4946C33.7439 27.2472 41.691 24.9343 49.6463 22.6705C49.9599 22.5803 50.4633 22.6131 50.6861 22.8017C53.4094 25.1557 56.0914 27.5425 58.7817 29.9293C58.823 29.9621 58.823 30.0277 58.9385 30.3066C46.4609 33.8827 33.9997 37.4506 21.291 41.0923V41.0841Z" fill="#828747"/>
    <path d="M89.8851 85.5638C93.0375 89.304 95.0841 93.5526 96.3797 98.195C98.8224 106.914 97.3205 115.362 95.4967 119.734C92.6496 116.24 90.669 112.393 89.3899 108.218C87.071 100.656 87.17 93.0933 89.8851 85.5638Z" fill="#303030"/>
  </g>
  <defs>
    <clipPath id="clip0_519_1802">
      <rect width="181" height="164" fill="#303030"/>
    </clipPath>
  </defs>
</svg>