<svg xmlns="http://www.w3.org/2000/svg" width="26" height="26" viewBox="0 0 26 26" fill="none">
<path d="M24.8182 4.72727H21.2727V1.18182C21.2696 0.869335 21.1441 0.57052 20.9232 0.34955C20.7022 0.12858 20.4034 0.00307888 20.0909 0H5.90909C5.65588 0.00857585 5.41144 0.0948194 5.20891 0.247035C5.00637 0.39925 4.85556 0.610072 4.77691 0.850909C4.74423 0.958183 4.72751 1.06968 4.72727 1.18182V4.72727H1.18182C0.86838 4.72727 0.56778 4.85179 0.346146 5.07342C0.124513 5.29505 0 5.59565 0 5.90909V24.8182C0 25.1316 0.124513 25.4322 0.346146 25.6539C0.56778 25.8755 0.86838 26 1.18182 26H24.8182C25.1316 26 25.4322 25.8755 25.6539 25.6539C25.8755 25.4322 26 25.1316 26 24.8182V5.90909C26 5.59565 25.8755 5.29505 25.6539 5.07342C25.4322 4.85179 25.1316 4.72727 24.8182 4.72727ZM7.09091 3.38945L10.6494 5.76255L7.09091 7.54236V3.38945ZM18.9091 3.38945V7.54236L15.3506 5.76255L18.9091 3.38945ZM16.1909 2.36364L13 4.49091L9.80909 2.36364H16.1909ZM23.6364 23.6364H2.36364V7.09091H4.72727V9.45455C4.72729 9.65615 4.77888 9.85439 4.87714 10.0304C4.9754 10.2065 5.11705 10.3544 5.28864 10.4603C6.36764 11.1315 7.072 9.86936 13 7.23036C19.9479 10.6553 19.591 10.6364 20.0909 10.6364C20.4043 10.6364 20.7049 10.5119 20.9266 10.2902C21.1482 10.0686 21.2727 9.76798 21.2727 9.45455V7.09091H23.6364V23.6364ZM14.1818 10.6364V13C14.1818 13.3134 14.0573 13.614 13.8357 13.8357C13.614 14.0573 13.3134 14.1818 13 14.1818C12.6866 14.1818 12.386 14.0573 12.1643 13.8357C11.9427 13.614 11.8182 13.3134 11.8182 13V10.6364C11.8182 10.3229 11.9427 10.0223 12.1643 9.80069C12.386 9.57906 12.6866 9.45455 13 9.45455C13.3134 9.45455 13.614 9.57906 13.8357 9.80069C14.0573 10.0223 14.1818 10.3229 14.1818 10.6364ZM14.1818 17.7273V20.0909C14.1818 20.4043 14.0573 20.7049 13.8357 20.9266C13.614 21.1482 13.3134 21.2727 13 21.2727C12.6866 21.2727 12.386 21.1482 12.1643 20.9266C11.9427 20.7049 11.8182 20.4043 11.8182 20.0909V17.7273C11.8182 17.4138 11.9427 17.1132 12.1643 16.8916C12.386 16.67 12.6866 16.5455 13 16.5455C13.3134 16.5455 13.614 16.67 13.8357 16.8916C14.0573 17.1132 14.1818 17.4138 14.1818 17.7273Z" fill="#818369"/>
</svg>