<svg xmlns="http://www.w3.org/2000/svg" width="40" height="40" viewBox="0 0 40 40" fill="none">
<mask id="mask0_532_3077" style="mask-type:alpha" maskUnits="userSpaceOnUse" x="0" y="0" width="40" height="40">
<rect width="40" height="40" fill="#D9D9D9"/>
</mask>
<g mask="url(#mask0_532_3077)">
<path d="M20 12.5C19.1944 12.5 18.5069 12.2152 17.9375 11.6458C17.3681 11.0763 17.0833 10.3888 17.0833 9.58329C17.0833 8.77774 17.3681 8.09024 17.9375 7.52079C18.5069 6.95135 19.1944 6.66663 20 6.66663C20.8056 6.66663 21.4931 6.95135 22.0625 7.52079C22.6319 8.09024 22.9167 8.77774 22.9167 9.58329C22.9167 10.3888 22.6319 11.0763 22.0625 11.6458C21.4931 12.2152 20.8056 12.5 20 12.5ZM16.6667 33.3333V25H15V17.5C15 16.5833 15.3264 15.7986 15.9792 15.1458C16.6319 14.493 17.4167 14.1666 18.3333 14.1666H21.6667C22.5833 14.1666 23.3681 14.493 24.0208 15.1458C24.6736 15.7986 25 16.5833 25 17.5V25H23.3333V33.3333H16.6667Z" fill="#DA6062"/>
</g>
</svg>