<svg xmlns="http://www.w3.org/2000/svg" width="28" height="28" viewBox="0 0 28 28" fill="none">
<mask id="mask0_613_2130" style="mask-type:alpha" maskUnits="userSpaceOnUse" x="0" y="0" width="28" height="28">
<rect width="28" height="28" fill="#D9D9D9"/>
</mask>
<g mask="url(#mask0_613_2130)">
<path d="M22.1663 9.33325C22.4969 9.33325 22.774 9.22145 22.9976 8.99784C23.2212 8.77422 23.333 8.49714 23.333 8.16659C23.333 7.83603 23.2212 7.55895 22.9976 7.33534C22.774 7.11172 22.4969 6.99992 22.1663 6.99992C21.8358 6.99992 21.5587 7.11172 21.3351 7.33534C21.1115 7.55895 20.9997 7.83603 20.9997 8.16659C20.9997 8.49714 21.1115 8.77422 21.3351 8.99784C21.5587 9.22145 21.8358 9.33325 22.1663 9.33325ZM22.1663 11.6666C21.1747 11.6666 20.3434 11.3312 19.6726 10.6603C19.0018 9.9895 18.6663 9.15825 18.6663 8.16659C18.6663 7.19436 19.0018 6.36797 19.6726 5.68742C20.3434 5.00686 21.1747 4.66659 22.1663 4.66659C23.1386 4.66659 23.965 5.00686 24.6455 5.68742C25.3261 6.36797 25.6663 7.19436 25.6663 8.16659C25.6663 9.15825 25.3261 9.9895 24.6455 10.6603C23.965 11.3312 23.1386 11.6666 22.1663 11.6666ZM13.9997 8.16659C14.4858 8.16659 14.899 8.00131 15.2393 7.67075C15.5795 7.3402 15.7497 6.92214 15.7497 6.41659C15.7497 5.93047 15.5795 5.51728 15.2393 5.177C14.899 4.83672 14.4858 4.66659 13.9997 4.66659C13.4941 4.66659 13.0761 4.83672 12.7455 5.177C12.415 5.51728 12.2497 5.93047 12.2497 6.41659C12.2497 6.92214 12.415 7.3402 12.7455 7.67075C13.0761 8.00131 13.4941 8.16659 13.9997 8.16659ZM13.9997 10.4999C12.8525 10.4999 11.8851 10.1062 11.0976 9.31867C10.3101 8.53117 9.91634 7.56381 9.91634 6.41659C9.91634 5.28881 10.3101 4.32631 11.0976 3.52909C11.8851 2.73186 12.8525 2.33325 13.9997 2.33325C15.1275 2.33325 16.09 2.73186 16.8872 3.52909C17.6844 4.32631 18.083 5.28881 18.083 6.41659C18.083 7.56381 17.6844 8.53117 16.8872 9.31867C16.09 10.1062 15.1275 10.4999 13.9997 10.4999ZM9.33301 15.6041C9.33301 16.1874 9.64412 16.868 10.2663 17.6458C10.8886 18.4235 12.133 19.6583 13.9997 21.3499C15.8275 19.6971 17.0622 18.4819 17.7038 17.7041C18.3455 16.9263 18.6663 16.2263 18.6663 15.6041C18.6663 15.1569 18.5205 14.7777 18.2288 14.4666C17.9372 14.1555 17.5775 13.9999 17.1497 13.9999C16.8775 13.9999 16.6198 14.0583 16.3768 14.1749C16.1337 14.2916 15.9344 14.4569 15.7788 14.6708L14.3788 16.3333H13.5913L12.1913 14.6708C12.0358 14.4569 11.8365 14.2916 11.5934 14.1749C11.3504 14.0583 11.1025 13.9999 10.8497 13.9999C10.4025 13.9999 10.0379 14.1555 9.75593 14.4666C9.47398 14.7777 9.33301 15.1569 9.33301 15.6041ZM6.99967 15.6041C6.99967 14.5735 7.34967 13.6596 8.04967 12.8624C8.74968 12.0652 9.68301 11.6666 10.8497 11.6666C11.4525 11.6666 12.0309 11.8027 12.5851 12.0749C13.1393 12.3471 13.6108 12.7166 13.9997 13.1833C14.3886 12.7166 14.8552 12.3471 15.3997 12.0749C15.9441 11.8027 16.5275 11.6666 17.1497 11.6666C18.3163 11.6666 19.2497 12.0701 19.9497 12.877C20.6497 13.6839 20.9997 14.593 20.9997 15.6041C20.9997 16.6346 20.6254 17.6506 19.8768 18.652C19.1281 19.6534 17.5969 21.2138 15.283 23.3333L13.9997 24.4999L12.7163 23.3333C10.3636 21.1944 8.82259 19.6291 8.09342 18.6374C7.36426 17.6458 6.99967 16.6346 6.99967 15.6041ZM5.83301 9.33325C6.16356 9.33325 6.44065 9.22145 6.66426 8.99784C6.88787 8.77422 6.99967 8.49714 6.99967 8.16659C6.99967 7.83603 6.88787 7.55895 6.66426 7.33534C6.44065 7.11172 6.16356 6.99992 5.83301 6.99992C5.50245 6.99992 5.22537 7.11172 5.00176 7.33534C4.77815 7.55895 4.66634 7.83603 4.66634 8.16659C4.66634 8.49714 4.77815 8.77422 5.00176 8.99784C5.22537 9.22145 5.50245 9.33325 5.83301 9.33325ZM14.0872 25.6666V23.3333H23.333V15.1666H19.8913V12.8333H23.333C23.9747 12.8333 24.524 13.0617 24.9809 13.5187C25.4379 13.9756 25.6663 14.5249 25.6663 15.1666V25.6666H14.0872ZM4.66634 23.3333H14.0872V25.6666H2.33301V15.1666C2.33301 14.5249 2.55662 13.9756 3.00384 13.5187C3.45106 13.0617 4.00523 12.8333 4.66634 12.8333H8.10801V15.1666H4.66634V23.3333ZM5.83301 11.6666C4.84134 11.6666 4.01009 11.3312 3.33926 10.6603C2.66842 9.9895 2.33301 9.15825 2.33301 8.16659C2.33301 7.19436 2.66842 6.36797 3.33926 5.68742C4.01009 5.00686 4.84134 4.66659 5.83301 4.66659C6.80523 4.66659 7.63162 5.00686 8.31217 5.68742C8.99273 6.36797 9.33301 7.19436 9.33301 8.16659C9.33301 9.15825 8.99273 9.9895 8.31217 10.6603C7.63162 11.3312 6.80523 11.6666 5.83301 11.6666Z" fill="#818369"/>
</g>
</svg>