<svg width="166" height="167" viewBox="0 0 166 167" fill="none" xmlns="http://www.w3.org/2000/svg">
<g clip-path="url(#clip0_607_3080)">
<path d="M71.7505 119.377C71.4677 119.035 71.2446 118.808 71.0734 118.549C60.8159 103.053 50.9527 87.3222 42.7109 70.6393C37.4129 59.9158 32.8079 48.9213 30.3979 37.1302C29.1192 30.8642 28.5337 24.5543 29.657 18.1967C30.4935 13.4444 32.2064 9.05855 35.7956 5.6925C41.5597 0.286909 48.24 -0.234928 55.3426 2.47783C61.3696 4.7763 66.0382 8.93905 70.1173 13.8029C75.9731 20.782 80.0442 28.7808 83.2509 37.2497C84.1591 39.6478 84.916 42.1016 85.7525 44.5275C85.8362 44.7705 85.9995 44.9896 86.2465 45.4358C86.5293 44.8024 86.7285 44.3722 86.9117 43.938C89.8396 37.0107 93.1578 30.3105 98.0615 24.5185C100.073 22.1403 102.34 20.041 105.084 18.5193C112.071 14.6474 119.397 16.8064 123.173 23.8532C125.277 27.777 126.081 32.0473 126.34 36.4331C126.874 45.5234 125.376 54.3787 123.074 63.1225C119.015 78.5466 112.593 93.0026 104.802 106.857C96.2968 121.979 86.4297 136.176 75.2082 149.413C72.0174 153.177 68.4801 156.615 64.4289 159.479C61.6046 161.475 58.5732 163.024 55.1035 163.534C49.8573 164.307 45.3998 162.53 41.4601 159.204C37.2057 155.611 33.8795 151.201 31.095 146.461C23.9566 134.315 16.9736 122.078 10.0383 109.817C7.23394 104.857 4.68451 99.7507 2.08329 94.6797C1.39813 93.3452 0.880275 91.9112 0.442091 90.4771C0.139346 89.5091 -0.0120265 88.4694 -7.6017e-05 87.4656C0.0238249 85.2667 0.951978 83.502 2.99153 82.5221C5.02709 81.5421 7.05468 81.8289 8.71978 83.2471C9.9706 84.3107 11.1338 85.6013 11.9663 87.0075C16.2844 94.2933 20.487 101.647 24.7294 108.98C30.6449 119.202 36.4688 129.475 42.5277 139.609C44.372 142.697 46.6824 145.553 49.0765 148.254C51.8132 151.341 53.4902 151.405 56.9439 149.102C60.8079 146.525 63.9588 143.159 67.0062 139.705C73.2722 132.61 78.7137 124.922 83.94 117.027C88.2382 110.538 92.3173 103.949 95.9901 97.1056C102.754 84.5059 108.371 71.4281 111.769 57.4858C113.286 51.2557 114.426 44.9498 114.123 38.5125C113.995 35.8196 113.438 33.1148 112.777 30.4937C112.322 28.6972 111.641 28.6135 110.143 29.7528C107.638 31.6609 105.853 34.1984 104.22 36.8354C100.117 43.464 97.3923 50.702 94.8787 58.0316C94.0222 60.5372 93.2415 63.0747 92.2217 65.5126C91.668 66.8351 90.8633 68.1496 89.8675 69.1654C87.1029 71.9857 82.5538 71.7627 80.1956 68.5998C79.1359 67.1777 78.4269 65.3891 77.9409 63.6602C76.5387 58.6849 75.4751 53.6099 74.0132 48.6544C71.4438 39.9346 67.9224 31.629 62.481 24.2556C60.0232 20.9254 57.2666 17.8661 53.6814 15.7189C52.3031 14.8944 50.7655 14.2331 49.2159 13.8268C46.6506 13.1576 44.8859 14.0857 43.6829 16.4479C42.4878 18.7942 42.1731 21.3397 42.1253 23.921C42.0098 30.1073 43.3682 36.0547 45.1647 41.9144C48.6224 53.1837 53.5779 63.8276 59.3977 74.0253C65.5921 84.8803 72.2047 95.4923 78.6818 106.184C79.2395 107.108 79.359 107.769 78.7376 108.702C76.6024 111.928 74.5509 115.207 72.4636 118.461C72.2724 118.756 72.0294 119.015 71.7466 119.377H71.7505Z" fill="#818369"/>
<path d="M97.6791 134.17C99.882 137.09 101.738 139.719 103.774 142.196C106.379 145.371 109.016 148.534 111.856 151.498C114.601 154.362 115.342 154.37 117.756 151.187C120.903 147.048 124.046 142.838 126.607 138.328C134.686 124.099 142.485 109.711 150.409 95.3943C151.986 92.5462 153.544 89.682 155.276 86.9294C156.061 85.6826 157.113 84.4955 158.296 83.6271C161.184 81.5119 164.749 82.8742 165.713 86.3279C166.239 88.2081 166 90.0923 165.323 91.849C164.08 95.0757 162.837 98.3182 161.311 101.413C152.938 118.403 144.019 135.098 133.782 151.052C131.184 155.099 128.424 159.039 124.847 162.309C118.899 167.75 112.307 168.232 105.933 163.285C102.905 160.935 100.241 158.063 97.6672 155.195C95.0381 152.259 92.7316 149.036 90.2699 145.945C89.8556 145.423 89.6405 145.005 90.1503 144.351C92.5683 141.232 94.9345 138.069 97.3127 134.919C97.4361 134.755 97.4959 134.548 97.6752 134.17H97.6791Z" fill="#818369"/>
</g>
<defs>
<clipPath id="clip0_607_3080">
<rect width="166" height="165.845" fill="white" transform="translate(0 0.871094)"/>
</clipPath>
</defs>
</svg>
