<svg width="22" height="17" viewBox="0 0 22 17" fill="none" xmlns="http://www.w3.org/2000/svg">
<path id="Vector" d="M8.8 5.33252C7.59 5.33252 6.6 6.25252 6.6 7.38252C6.6 7.95252 6.842 8.45252 7.249 8.83252L11 12.3325L14.762 8.83252C15.158 8.46252 15.4 7.94252 15.4 7.38252C15.4 6.25252 14.41 5.33252 13.2 5.33252C12.606 5.33252 12.045 5.56252 11.649 5.93252L11 6.53252L10.362 5.94252C10.1595 5.75128 9.91705 5.5988 9.6488 5.49404C9.38055 5.38928 9.09195 5.33436 8.8 5.33252ZM19.8 0.33252C21.01 0.33252 22 1.23252 22 2.33252V14.3325C22 15.4325 21.01 16.3325 19.8 16.3325H2.2C0.99 16.3325 0 15.4325 0 14.3325V2.33252C0 1.23252 0.99 0.33252 2.2 0.33252H19.8ZM16.17 4.39252L19.8 2.33252H2.2L5.83 4.39252C5.379 4.78252 5.005 5.25252 4.763 5.78252L2.2 4.33252V14.3325H19.8V4.33252L17.237 5.78252C16.995 5.25252 16.621 4.78252 16.17 4.39252Z" fill="#5D6679"/>
</svg>
