<svg xmlns="http://www.w3.org/2000/svg" width="18" height="17" viewBox="0 0 18 17" fill="none">
<path d="M7.2 5.33252C6.21 5.33252 5.4 6.25252 5.4 7.38252C5.4 7.95252 5.598 8.45252 5.931 8.83252L9 12.3325L12.078 8.83252C12.402 8.46252 12.6 7.94252 12.6 7.38252C12.6 6.25252 11.79 5.33252 10.8 5.33252C10.314 5.33252 9.855 5.56252 9.531 5.93252L9 6.53252L8.478 5.94252C8.31235 5.75128 8.11395 5.5988 7.89447 5.49404C7.67499 5.38928 7.43887 5.33436 7.2 5.33252ZM16.2 0.33252C17.19 0.33252 18 1.23252 18 2.33252V14.3325C18 15.4325 17.19 16.3325 16.2 16.3325H1.8C0.81 16.3325 0 15.4325 0 14.3325V2.33252C0 1.23252 0.81 0.33252 1.8 0.33252H16.2ZM13.23 4.39252L16.2 2.33252H1.8L4.77 4.39252C4.401 4.78252 4.095 5.25252 3.897 5.78252L1.8 4.33252V14.3325H16.2V4.33252L14.103 5.78252C13.905 5.25252 13.599 4.78252 13.23 4.39252Z" fill="#5D6679"/>
</svg>