<svg width="86" height="86" viewBox="0 0 86 86" fill="none" xmlns="http://www.w3.org/2000/svg">
<g clip-path="url(#clip0_350_683)">
<path d="M36.9993 61.1097C36.8535 60.933 36.7384 60.816 36.6501 60.6824C31.3607 52.6918 26.2746 44.5799 22.0245 35.9771C19.2925 30.4473 16.9179 24.7779 15.6751 18.6976C15.0157 15.4664 14.7138 12.2126 15.293 8.93415C15.7244 6.48354 16.6077 4.22191 18.4585 2.48615C21.4309 -0.301337 24.8757 -0.570431 28.5382 0.828449C31.6462 2.0137 34.0536 4.16029 36.1571 6.66841C39.1767 10.2673 41.2761 14.392 42.9297 18.7592C43.398 19.9958 43.7883 21.2611 44.2197 22.5121C44.2628 22.6374 44.347 22.7504 44.4744 22.9805C44.6202 22.6539 44.7229 22.432 44.8174 22.2081C46.3272 18.6359 48.0383 15.1808 50.567 12.1941C51.6044 10.9678 52.7732 9.88522 54.1885 9.10053C57.7915 7.1039 61.5691 8.21725 63.5164 11.851C64.601 13.8744 65.0159 16.0764 65.1495 18.3381C65.4247 23.0257 64.6524 27.592 63.4651 32.1009C61.3719 40.0546 58.0606 47.5091 54.0426 54.6535C49.657 62.4511 44.5689 69.7721 38.7823 76.598C37.1369 78.5392 35.3128 80.312 33.2238 81.7889C31.7674 82.818 30.2042 83.6171 28.415 83.88C25.7097 84.2785 23.4111 83.3624 21.3795 81.6472C19.1857 79.7943 17.4704 77.5204 16.0346 75.0759C12.3535 68.8128 8.75261 62.5024 5.17632 56.1797C3.7302 53.6223 2.41554 50.9889 1.07417 48.3739C0.720859 47.6858 0.453819 46.9463 0.227862 46.2068C0.0717457 45.7076 -0.00631226 45.1715 -0.000149795 44.6539C0.0121751 43.52 0.490794 42.61 1.54252 42.1047C2.5922 41.5993 3.63776 41.7472 4.4964 42.4785C5.1414 43.027 5.74122 43.6925 6.17054 44.4176C8.39724 48.1747 10.5644 51.9667 12.7521 55.7484C15.8025 61.0193 18.8056 66.317 21.93 71.5428C22.8811 73.1347 24.0725 74.6076 25.3071 76.0003C26.7183 77.5923 27.5831 77.6251 29.364 76.4378C31.3565 75.1088 32.9814 73.373 34.5528 71.5921C37.784 67.9336 40.59 63.9691 43.285 59.8978C45.5015 56.5515 47.6049 53.154 49.4988 49.6249C52.9868 43.1276 55.8832 36.3838 57.6354 29.1943C58.418 25.9816 59.0055 22.7299 58.8494 19.4103C58.7836 18.0217 58.496 16.627 58.1551 15.2753C57.9209 14.3489 57.5696 14.3058 56.7973 14.8933C55.5052 15.8772 54.5849 17.1857 53.7427 18.5455C51.627 21.9637 50.2219 25.6961 48.9257 29.4757C48.4841 30.7678 48.0815 32.0763 47.5556 33.3334C47.2701 34.0154 46.8552 34.6933 46.3416 35.2171C44.916 36.6714 42.5702 36.5564 41.3541 34.9254C40.8077 34.192 40.4421 33.2697 40.1915 32.3782C39.4684 29.8126 38.9199 27.1956 38.1661 24.6402C36.8411 20.1437 35.0253 15.8608 32.2193 12.0585C30.9519 10.3412 29.5304 8.76365 27.6817 7.65646C26.9709 7.23125 26.178 6.89026 25.3789 6.68074C24.0561 6.33564 23.1461 6.81426 22.5257 8.03237C21.9095 9.24227 21.7472 10.5549 21.7226 11.886C21.663 15.0761 22.3634 18.1429 23.2899 21.1646C25.0729 26.9758 27.6283 32.4645 30.6294 37.7231C33.8236 43.3207 37.2335 48.793 40.5735 54.3063C40.8611 54.7829 40.9227 55.1239 40.6023 55.6046C39.5013 57.2684 38.4434 58.959 37.367 60.6373C37.2684 60.7893 37.1431 60.9228 36.9973 61.1097H36.9993Z" fill="#76917E"/>
<path d="M50.3699 68.7382C51.5059 70.2439 52.4631 71.5996 53.5128 72.8773C54.8562 74.5145 56.216 76.1455 57.6806 77.6738C59.096 79.1507 59.478 79.1548 60.7229 77.5135C62.3456 75.3793 63.9664 73.208 65.2872 70.8827C69.453 63.5453 73.4751 56.1257 77.5608 48.743C78.3742 47.2743 79.1774 45.7974 80.0709 44.3779C80.4756 43.735 81.0179 43.1229 81.628 42.6751C83.1173 41.5843 84.9557 42.2868 85.4528 44.0678C85.724 45.0373 85.6007 46.009 85.2515 46.9148C84.6106 48.5787 83.9697 50.2508 83.183 51.8469C78.8652 60.6078 74.2659 69.2168 68.9867 77.4437C67.6474 79.5307 66.2239 81.5623 64.3793 83.2487C61.3124 86.0547 57.9128 86.3033 54.6261 83.752C53.065 82.5401 51.6907 81.059 50.3637 79.58C49.008 78.0661 47.8186 76.4043 46.5492 74.8103C46.3355 74.5412 46.2246 74.3255 46.4876 73.9886C47.7344 72.3802 48.9546 70.7492 50.1809 69.1244C50.2446 69.0401 50.2754 68.9333 50.3679 68.7382H50.3699Z" fill="#76917E"/>
</g>
<defs>
<clipPath id="clip0_350_683">
<rect width="85.6008" height="85.5207" fill="white"/>
</clipPath>
</defs>
</svg>
