<svg xmlns="http://www.w3.org/2000/svg" width="127" height="94" viewBox="0 0 127 94" fill="none">
<g clip-path="url(#clip0_392_1731)">
<path d="M4.67951 55.687C4.67951 55.908 4.62609 56.2334 4.51924 56.6656C4.41239 57.0979 4.2764 57.5957 4.1137 58.1615C3.951 58.7273 3.77616 59.3417 3.58675 60.0046C3.39734 60.6676 3.22249 61.3402 3.05979 62.0226C2.89709 62.705 2.76353 63.3752 2.65426 64.0357C2.54741 64.6962 2.49398 65.3082 2.49398 65.874C2.49398 66.3354 2.52555 66.7652 2.58626 67.1659C2.64697 67.5666 2.74411 67.9138 2.87281 68.2076C3.00394 68.5039 3.16421 68.7346 3.36091 68.9046C3.55518 69.0746 3.78587 69.1571 4.05299 69.1571C4.32011 69.1571 4.57752 69.0794 4.82764 68.924C5.07776 68.7686 5.3206 68.5525 5.55372 68.2805C5.78685 68.0085 6.01269 67.6831 6.22638 67.3067C6.44008 66.9303 6.64649 66.5224 6.84562 66.0828C7.04474 65.6433 7.23173 65.1819 7.40657 64.6987C7.58141 64.2154 7.74897 63.7249 7.90438 63.2319C8.45076 61.4908 8.93401 59.5117 9.35655 57.297C9.43425 56.94 9.52653 56.6413 9.63338 56.4009C9.74023 56.1605 9.86893 55.9687 10.0195 55.8254C10.17 55.6821 10.3425 55.5826 10.5416 55.5243C10.7407 55.466 10.969 55.4369 11.2288 55.4369C11.4887 55.4369 11.6781 55.4587 11.8383 55.5049C11.9986 55.551 12.1249 55.6117 12.2196 55.6894C12.3143 55.7671 12.3799 55.8618 12.4187 55.9711C12.4576 56.0828 12.477 56.2042 12.477 56.3427C12.477 56.3888 12.4503 56.5782 12.3993 56.9133C12.3483 57.2484 12.2803 57.6758 12.2002 58.2003C12.12 58.7224 12.0302 59.3174 11.9379 59.9803C11.8432 60.6433 11.7558 61.3232 11.6756 62.0226C11.5955 62.722 11.5275 63.4116 11.4765 64.094C11.4255 64.7764 11.3988 65.4029 11.3988 65.976C11.3988 66.5491 11.4207 67.0882 11.4619 67.5593C11.5032 68.0304 11.5761 68.4311 11.6756 68.7637C11.7752 69.0964 11.9088 69.349 12.0715 69.5238C12.2342 69.6987 12.4357 69.7861 12.6761 69.7861C13.0914 69.7861 13.4702 69.6234 13.8126 69.298C14.1526 68.9726 14.4658 68.5403 14.7475 67.9964C15.0292 67.4524 15.2842 66.8259 15.5076 66.1095C15.731 65.3956 15.9301 64.6477 16.1025 63.8682C16.275 63.0886 16.4231 62.3019 16.5518 61.5102C16.6781 60.7186 16.7849 59.9682 16.8675 59.264C16.95 58.5597 17.018 57.9259 17.0666 57.3626C17.1152 56.8016 17.1492 56.3597 17.1686 56.0415C17.188 55.7088 17.2487 55.4442 17.3483 55.2426C17.4479 55.041 17.5766 54.8856 17.732 54.7739C17.8874 54.6622 18.0647 54.5894 18.2638 54.5554C18.4629 54.519 18.6645 54.502 18.8733 54.502C19.036 54.502 19.1841 54.519 19.3177 54.5554C19.4513 54.5918 19.5654 54.6525 19.6625 54.7399C19.7597 54.8273 19.8349 54.9439 19.8859 55.092C19.9369 55.2377 19.9636 55.4247 19.9636 55.653C19.9636 56.2844 19.9224 56.9643 19.8422 57.6953C19.7621 58.4262 19.6601 59.1596 19.5411 59.8929C19.4197 60.6263 19.291 61.3427 19.1501 62.0372C19.0093 62.7317 18.8806 63.3606 18.7592 63.9192C18.6378 64.4777 18.5382 64.9488 18.4581 65.3325C18.3779 65.7161 18.3366 65.959 18.3366 66.0634C18.3366 66.3159 18.3731 66.5321 18.4435 66.7118C18.5139 66.8915 18.611 67.0372 18.73 67.1562C18.849 67.2727 18.9923 67.3577 19.1599 67.4087C19.325 67.4597 19.5023 67.4864 19.6917 67.4864C19.8811 67.4864 20.0729 67.4427 20.2721 67.3553C20.4712 67.2679 20.6606 67.1464 20.8427 66.991C21.0248 66.8356 21.1924 66.6486 21.3454 66.4301C21.4984 66.2115 21.6271 65.9711 21.7315 65.704L21.8966 67.722C21.4158 68.2756 20.9204 68.7103 20.4105 69.0284C19.9005 69.3465 19.4221 69.5068 18.9729 69.5068C18.7592 69.5068 18.5576 69.4728 18.3682 69.4048C18.1788 69.3368 18.0112 69.23 17.8655 69.0891C17.7198 68.9459 17.5984 68.7613 17.5013 68.533C17.4041 68.3048 17.3362 68.0352 17.2973 67.7244C16.9719 68.3291 16.6222 68.873 16.2507 69.3563C15.8767 69.8395 15.4809 70.2523 15.0608 70.5947C14.6407 70.9371 14.2036 71.1994 13.7446 71.3839C13.2856 71.5685 12.8145 71.6608 12.3264 71.6608C11.7096 71.6608 11.1851 71.4981 10.7529 71.1727C10.3206 70.8473 9.97092 70.4053 9.70137 69.8468C9.43182 69.2883 9.23513 68.6326 9.11128 67.8774C8.98743 67.1246 8.92672 66.3208 8.92672 65.4709C8.92672 65.1576 8.94372 64.8662 8.97529 64.5942C9.00686 64.3223 9.03357 64.077 9.053 63.8633C8.81988 65.3446 8.52604 66.5855 8.1715 67.5811C7.81696 68.5792 7.40171 69.3781 6.92332 69.9828C6.44493 70.5874 5.90098 71.0173 5.2866 71.2747C4.67223 71.5321 3.99229 71.6608 3.24435 71.6608C2.81453 71.6608 2.40656 71.5199 2.0156 71.2358C1.62463 70.9517 1.28223 70.5316 0.988397 69.9731C0.692136 69.4145 0.456585 68.7152 0.276886 67.8725C0.0971868 67.0299 0.00976562 66.0488 0.00976562 64.9245C0.00976562 64.2348 0.0486195 63.5282 0.126327 62.8045C0.204035 62.0809 0.31574 61.3548 0.461442 60.6263C0.607144 59.8978 0.786843 59.1766 1.00297 58.4626C1.21666 57.7487 1.46193 57.0517 1.73391 56.3767C1.89661 56.0003 2.05931 55.7064 2.22201 55.4952C2.38471 55.2839 2.54984 55.1285 2.71982 55.0265C2.88981 54.9269 3.05979 54.8662 3.23221 54.8468C3.40462 54.8273 3.57703 54.8176 3.75431 54.8176C3.89758 54.8176 4.02628 54.8273 4.14527 54.8468C4.26183 54.8662 4.3614 54.9075 4.44153 54.9682C4.52167 55.0289 4.58481 55.1188 4.62609 55.2305C4.66737 55.3446 4.68923 55.4976 4.68923 55.6943L4.67951 55.687Z" fill="white"/>
<path d="M24.182 70.7159C23.57 70.7159 23.0358 70.6042 22.5793 70.3857C22.1203 70.1647 21.739 69.8684 21.4331 69.4945C21.1271 69.1205 20.8988 68.6882 20.7458 68.1977C20.5929 67.7072 20.5176 67.1924 20.5176 66.6533C20.5176 66.289 20.554 65.9053 20.6244 65.4974C20.6948 65.0918 20.8041 64.6936 20.9498 64.3026C21.0955 63.9116 21.2801 63.5401 21.5011 63.1856C21.722 62.831 21.9795 62.5202 22.2757 62.2506C22.572 61.9811 22.9022 61.7674 23.2689 61.6071C23.6356 61.4468 24.0436 61.3691 24.4928 61.3691C24.8571 61.3691 25.1946 61.4274 25.5054 61.544C25.8163 61.6605 26.0882 61.8257 26.3189 62.0369C26.5496 62.2482 26.7293 62.5032 26.8605 62.8019C26.9916 63.1006 27.0547 63.4357 27.0547 63.8048C27.0547 64.2079 26.9552 64.611 26.7585 65.0141C26.5594 65.4172 26.2849 65.796 25.9353 66.1554C25.5856 66.5148 25.1679 66.8305 24.6822 67.1098C24.199 67.3891 23.6745 67.6076 23.1086 67.763C23.2058 67.9379 23.3029 68.0836 23.3952 68.2026C23.4899 68.3191 23.5846 68.4114 23.6817 68.4745C23.7789 68.5401 23.8809 68.5862 23.9877 68.6105C24.0946 68.6372 24.2111 68.6494 24.3325 68.6494C24.7235 68.6494 25.1339 68.5717 25.5662 68.4163C25.9984 68.2608 26.4185 68.0641 26.8289 67.831C27.2393 67.5979 27.6254 67.3429 27.9897 67.0661C28.3539 66.7893 28.6623 66.5294 28.9149 66.2817L30.1728 67.5882C29.6021 68.1807 28.9926 68.7028 28.3515 69.1569C28.0722 69.3512 27.7711 69.543 27.4506 69.7324C27.13 69.9218 26.79 70.087 26.4379 70.2351C26.0834 70.3808 25.7167 70.4974 25.3355 70.5848C24.9566 70.6722 24.5705 70.7159 24.1796 70.7159H24.182ZM22.8852 66.136C23.1184 66.136 23.3733 66.0753 23.6502 65.9563C23.927 65.8373 24.182 65.6819 24.42 65.4925C24.6579 65.3031 24.8571 65.0991 25.0198 64.8781C25.1825 64.6571 25.2626 64.4434 25.2626 64.2346C25.2626 63.9432 25.2092 63.7028 25.1023 63.5134C24.9955 63.324 24.8644 63.2317 24.7065 63.2317C24.4272 63.2317 24.1893 63.2827 23.9901 63.3871C23.791 63.4915 23.6259 63.6251 23.4923 63.7926C23.3588 63.9578 23.2519 64.1472 23.1694 64.3585C23.0892 64.5697 23.0261 64.7834 22.9848 64.9971C22.9435 65.2108 22.9144 65.4196 22.9022 65.6212C22.8901 65.8228 22.8828 65.9952 22.8828 66.1384L22.8852 66.136Z" fill="white"/>
<path d="M39.5513 68.8067C39.0899 69.1637 38.6358 69.4818 38.1866 69.7611C37.9972 69.8776 37.8005 69.9942 37.5916 70.1059C37.3828 70.22 37.1788 70.3196 36.9773 70.407C36.7757 70.4944 36.579 70.5673 36.3872 70.6207C36.1953 70.6766 36.0181 70.7033 35.8554 70.7033C35.7631 70.7033 35.6295 70.6838 35.4498 70.645C35.2701 70.6061 35.0758 70.526 34.8646 70.407C34.6533 70.288 34.442 70.1132 34.2308 69.8849C34.0195 69.6566 33.835 69.3555 33.6795 68.9791C33.4391 69.2123 33.1841 69.4357 32.9146 69.6469C32.6451 69.8582 32.3658 70.0403 32.0768 70.1982C31.7878 70.3536 31.4964 70.4799 31.2002 70.5721C30.9039 70.6668 30.6077 70.713 30.309 70.713C29.8864 70.713 29.5197 70.6231 29.2113 70.441C28.9029 70.2589 28.6455 70.016 28.4416 69.7149C28.2376 69.4138 28.0846 69.069 27.9826 68.6877C27.8806 68.304 27.832 67.9082 27.832 67.4978C27.832 67.0874 27.8855 66.6625 27.9923 66.2351C28.0992 65.8101 28.2546 65.3973 28.461 64.9966C28.6674 64.5959 28.9151 64.2195 29.2065 63.865C29.4979 63.5105 29.8306 63.1948 30.1997 62.9204C30.5712 62.6435 30.9719 62.4153 31.409 62.2331C31.8437 62.051 32.3099 61.9369 32.8029 61.8907C32.8223 61.0602 32.8976 60.237 33.0263 59.4259C33.1574 58.6149 33.3274 57.8402 33.5435 57.1069C33.7572 56.3735 34.0098 55.6935 34.2988 55.0695C34.5877 54.4454 34.9034 53.9063 35.2483 53.4522C35.5931 52.9981 35.9598 52.6411 36.3507 52.3837C36.7417 52.1263 37.1424 52 37.5601 52C37.866 52 38.1259 52.0801 38.3396 52.238C38.5533 52.3958 38.7281 52.6095 38.8617 52.8718C38.9952 53.134 39.0899 53.44 39.1482 53.7873C39.2065 54.1345 39.2356 54.4939 39.2356 54.863C39.2356 55.0913 39.2259 55.3244 39.2065 55.5648C39.1215 56.4803 38.9661 57.3473 38.7378 58.1632C38.5096 58.9791 38.2449 59.7732 37.9389 60.5454C37.6329 61.3176 37.3027 62.085 36.9457 62.8451C36.5887 63.6052 36.2415 64.3944 35.9039 65.2127C35.8724 65.305 35.8384 65.4143 35.8068 65.5454C35.7752 65.6766 35.7436 65.8174 35.7145 65.9704C35.6854 66.1234 35.6611 66.2788 35.6417 66.4391C35.6222 66.5993 35.6125 66.7523 35.6125 66.9029C35.6125 67.0923 35.6247 67.2696 35.6465 67.4396C35.6684 67.6095 35.7072 67.7601 35.7582 67.8937C35.8092 68.0272 35.8796 68.1316 35.9671 68.2093C36.0545 68.287 36.1638 68.3259 36.2925 68.3259C36.4212 68.3259 36.5499 68.3016 36.698 68.253C36.8437 68.2045 36.9991 68.1389 37.1618 68.0539C37.3245 67.9689 37.4872 67.8742 37.6548 67.7674C37.8199 67.6605 37.9802 67.5513 38.138 67.442C38.495 67.1821 38.869 66.8859 39.2599 66.5556L39.5513 68.8067ZM32.8466 63.3478C32.4168 63.5566 32.0355 63.831 31.7004 64.171C31.3653 64.5109 31.086 64.88 30.8626 65.2783C30.6392 65.6741 30.4668 66.0748 30.3502 66.4779C30.2337 66.881 30.1754 67.2453 30.1754 67.5707C30.1754 67.7018 30.19 67.8305 30.2191 67.9616C30.2483 68.0928 30.3017 68.2093 30.3794 68.3138C30.4571 68.4182 30.5688 68.5032 30.7121 68.5663C30.8553 68.6319 31.0399 68.6634 31.2682 68.6634C31.3847 68.6634 31.5013 68.6343 31.613 68.576C31.7271 68.5177 31.8364 68.4425 31.9384 68.3478C32.0428 68.2531 32.1424 68.1462 32.2347 68.0272C32.3294 67.9058 32.4144 67.782 32.4921 67.6532C32.6742 67.3546 32.8393 67.017 32.9899 66.6406C32.9705 66.5483 32.9535 66.4051 32.9413 66.2059C32.9292 66.0068 32.9195 65.7858 32.9122 65.543C32.9049 65.3002 32.9 65.0476 32.8927 64.7878C32.8855 64.5279 32.8806 64.29 32.8782 64.0763C32.8757 63.8626 32.8709 63.6853 32.8636 63.5493C32.8563 63.4133 32.8515 63.3478 32.8442 63.355L32.8466 63.3478ZM37.4265 56.2812C37.4654 55.8271 37.4848 55.4653 37.4848 55.1982C37.4848 54.8485 37.4532 54.6032 37.3925 54.4672C37.3318 54.3312 37.242 54.2632 37.1254 54.2632C36.9165 54.2632 36.7296 54.3944 36.5596 54.6566C36.3896 54.9189 36.2415 55.2564 36.1103 55.6644C35.9792 56.0724 35.8675 56.5265 35.7704 57.0194C35.6732 57.5124 35.5907 57.9908 35.5275 58.4522C35.462 58.9136 35.411 59.3288 35.3721 59.7004C35.3333 60.0719 35.3065 60.3342 35.2944 60.4896C35.2677 60.8077 35.2483 61.1161 35.2313 61.4099C35.2143 61.7062 35.2046 61.9757 35.1973 62.2186C35.19 62.4614 35.1876 62.6751 35.1876 62.8572V63.3745C35.5591 62.5294 35.8991 61.6892 36.2099 60.8514C36.341 60.4944 36.4722 60.118 36.6057 59.7246C36.7393 59.3312 36.8607 58.9378 36.97 58.5396C37.0817 58.1438 37.1764 57.7528 37.2565 57.3691C37.3367 56.9854 37.3949 56.6212 37.4265 56.2764V56.2812Z" fill="white"/>
<path d="M50.0005 68.8067C49.5392 69.1637 49.085 69.4818 48.6358 69.7611C48.4464 69.8776 48.2497 69.9942 48.0409 70.1059C47.832 70.22 47.628 70.3196 47.4265 70.407C47.2249 70.4944 47.0282 70.5673 46.8364 70.6207C46.6445 70.6766 46.4673 70.7033 46.3046 70.7033C46.2123 70.7033 46.0787 70.6838 45.899 70.645C45.7193 70.6061 45.5251 70.526 45.3138 70.407C45.1025 70.288 44.8913 70.1132 44.68 69.8849C44.4687 69.6566 44.2842 69.3555 44.1288 68.9791C43.8883 69.2123 43.6334 69.4357 43.3638 69.6469C43.0943 69.8582 42.815 70.0403 42.526 70.1982C42.2371 70.3536 41.9457 70.4799 41.6494 70.5721C41.3531 70.6668 41.0569 70.713 40.7582 70.713C40.3356 70.713 39.969 70.6231 39.6606 70.441C39.3522 70.2589 39.0948 70.016 38.8908 69.7149C38.6868 69.4138 38.5338 69.069 38.4318 68.6877C38.3298 68.304 38.2812 67.9082 38.2812 67.4978C38.2812 67.0874 38.3347 66.6625 38.4415 66.2351C38.5484 65.8101 38.7038 65.3973 38.9102 64.9966C39.1166 64.5959 39.3643 64.2195 39.6557 63.865C39.9471 63.5105 40.2798 63.1948 40.6489 62.9204C41.0204 62.6435 41.4211 62.4153 41.8582 62.2331C42.2929 62.051 42.7592 61.9369 43.2521 61.8907C43.2715 61.0602 43.3468 60.237 43.4755 59.4259C43.6067 58.6149 43.7766 57.8402 43.9928 57.1069C44.2065 56.3735 44.459 55.6935 44.748 55.0695C45.037 54.4454 45.3527 53.9063 45.6975 53.4522C46.0423 52.9981 46.409 52.6411 46.8 52.3837C47.1909 52.1263 47.5916 52 48.0093 52C48.3153 52 48.5751 52.0801 48.7888 52.238C49.0025 52.3958 49.1773 52.6095 49.3109 52.8718C49.4444 53.134 49.5392 53.44 49.5974 53.7873C49.6557 54.1345 49.6849 54.4939 49.6849 54.863C49.6849 55.0913 49.6751 55.3244 49.6557 55.5648C49.5707 56.4803 49.4153 57.3473 49.187 58.1632C48.9588 58.9791 48.6941 59.7732 48.3881 60.5454C48.0821 61.3176 47.7519 62.085 47.3949 62.8451C47.0379 63.6052 46.6907 64.3944 46.3531 65.2127C46.3216 65.305 46.2876 65.4143 46.256 65.5454C46.2244 65.6766 46.1929 65.8174 46.1637 65.9704C46.1346 66.1234 46.1103 66.2788 46.0909 66.4391C46.0714 66.5993 46.0617 66.7523 46.0617 66.9029C46.0617 67.0923 46.0739 67.2696 46.0957 67.4396C46.1176 67.6095 46.1564 67.7601 46.2074 67.8937C46.2584 68.0272 46.3289 68.1316 46.4163 68.2093C46.5037 68.287 46.613 68.3259 46.7417 68.3259C46.8704 68.3259 46.9991 68.3016 47.1472 68.253C47.2929 68.2045 47.4483 68.1389 47.611 68.0539C47.7737 67.9689 47.9364 67.8742 48.104 67.7674C48.2691 67.6605 48.4294 67.5513 48.5872 67.442C48.9442 67.1821 49.3182 66.8859 49.7091 66.5556L50.0005 68.8067ZM43.2958 63.3478C42.866 63.5566 42.4848 63.831 42.1496 64.171C41.8145 64.5109 41.5353 64.88 41.3118 65.2783C41.0884 65.6741 40.916 66.0748 40.7995 66.4779C40.6829 66.881 40.6246 67.2453 40.6246 67.5707C40.6246 67.7018 40.6392 67.8305 40.6683 67.9616C40.6975 68.0928 40.7509 68.2093 40.8286 68.3138C40.9063 68.4182 41.018 68.5032 41.1613 68.5663C41.3046 68.6319 41.4891 68.6634 41.7174 68.6634C41.8339 68.6634 41.9505 68.6343 42.0622 68.576C42.1764 68.5177 42.2856 68.4425 42.3876 68.3478C42.492 68.2531 42.5916 68.1462 42.6839 68.0272C42.7786 67.9058 42.8636 67.782 42.9413 67.6532C43.1234 67.3546 43.2885 67.017 43.4391 66.6406C43.4197 66.5483 43.4027 66.4051 43.3905 66.2059C43.3784 66.0068 43.3687 65.7858 43.3614 65.543C43.3541 65.3002 43.3492 65.0476 43.342 64.7878C43.3347 64.5279 43.3298 64.29 43.3274 64.0763C43.325 63.8626 43.3201 63.6853 43.3128 63.5493C43.3055 63.4133 43.3007 63.3478 43.2934 63.355L43.2958 63.3478ZM47.8757 56.2812C47.9146 55.8271 47.934 55.4653 47.934 55.1982C47.934 54.8485 47.9024 54.6032 47.8417 54.4672C47.781 54.3312 47.6912 54.2632 47.5746 54.2632C47.3658 54.2632 47.1788 54.3944 47.0088 54.6566C46.8388 54.9189 46.6907 55.2564 46.5595 55.6644C46.4284 56.0724 46.3167 56.5265 46.2196 57.0194C46.1224 57.5124 46.0399 57.9908 45.9767 58.4522C45.9112 58.9136 45.8602 59.3288 45.8213 59.7004C45.7825 60.0719 45.7558 60.3342 45.7436 60.4896C45.7169 60.8077 45.6975 61.1161 45.6805 61.4099C45.6635 61.7062 45.6538 61.9757 45.6465 62.2186C45.6392 62.4614 45.6368 62.6751 45.6368 62.8572V63.3745C46.0083 62.5294 46.3483 61.6892 46.6591 60.8514C46.7902 60.4944 46.9214 60.118 47.0549 59.7246C47.1885 59.3312 47.3099 58.9378 47.4192 58.5396C47.5309 58.1438 47.6256 57.7528 47.7057 57.3691C47.7859 56.9854 47.8442 56.6212 47.8757 56.2764V56.2812Z" fill="white"/>
<path d="M55.3791 68.6391C55.146 68.8528 54.8546 69.0835 54.5073 69.3263C54.1601 69.5692 53.7837 69.795 53.3806 69.999C52.9774 70.203 52.5671 70.3754 52.1469 70.5114C51.7268 70.6474 51.3286 70.7154 50.9522 70.7154C50.6146 70.7154 50.3305 70.6692 50.0998 70.5745C49.8691 70.4798 49.6822 70.3487 49.5389 70.1811C49.3956 70.0111 49.2936 69.8047 49.2329 69.5619C49.1722 69.319 49.1406 69.0495 49.1406 68.7581C49.1406 68.3477 49.1868 67.8717 49.2815 67.3302C49.3762 66.7887 49.4903 66.2253 49.6263 65.6449C49.7623 65.0645 49.908 64.4842 50.061 63.9062C50.214 63.3283 50.3475 62.794 50.4665 62.3084C50.5127 62.1384 50.6025 61.9951 50.7385 61.8737C50.8745 61.7523 51.0299 61.6551 51.2023 61.5823C51.3747 61.5094 51.5544 61.4511 51.739 61.4171C51.9235 61.3807 52.0911 61.3637 52.2416 61.3637C52.5136 61.3637 52.7006 61.4147 52.7977 61.5143C52.8949 61.6138 52.9434 61.7498 52.9434 61.9198C52.9434 62.0631 52.9119 62.2695 52.8463 62.539C52.7807 62.8086 52.7006 63.1146 52.6035 63.4545C52.5063 63.7945 52.4019 64.1636 52.2902 64.557C52.1785 64.9504 52.0765 65.3438 51.9794 65.7372C51.8823 66.1306 51.7997 66.5143 51.7365 66.8882C51.671 67.2622 51.6394 67.5973 51.6394 67.896C51.6394 68.1947 51.671 68.4206 51.7365 68.593C51.8021 68.7654 51.9357 68.8504 52.1372 68.8504C52.3704 68.8504 52.6302 68.7702 52.9167 68.6075C53.2033 68.4448 53.4923 68.2481 53.7837 68.0174C54.0751 67.7867 54.3616 67.5488 54.6409 67.3011C54.9201 67.0534 55.1678 66.8421 55.3815 66.6673V68.6464L55.3791 68.6391ZM51.0226 58.6197C51.0226 58.4691 51.0542 58.3016 51.1197 58.1121C51.1853 57.9227 51.2897 57.7479 51.4354 57.5803C51.5811 57.4152 51.7778 57.2743 52.0207 57.1602C52.2635 57.0461 52.567 56.9902 52.9313 56.9902C53.1596 56.9902 53.3733 57.0169 53.5748 57.0679C53.7764 57.1189 53.9512 57.1991 54.1018 57.3059C54.2523 57.4128 54.3689 57.5536 54.4563 57.7309C54.5437 57.9082 54.5874 58.1146 54.5874 58.355C54.5874 58.576 54.551 58.7897 54.4806 58.9985C54.4102 59.2073 54.296 59.3919 54.1382 59.5546C53.9828 59.7173 53.7861 59.8484 53.5481 59.948C53.3101 60.05 53.026 60.0985 52.6958 60.0985C52.1227 60.0985 51.7026 59.965 51.4281 59.693C51.1537 59.421 51.0178 59.0641 51.0178 58.6148L51.0226 58.6197Z" fill="white"/>
<path d="M54.6865 68.6785C54.6865 68.2486 54.7132 67.7533 54.7642 67.1923C54.8152 66.6314 54.8808 66.0583 54.9585 65.4779C55.0362 64.8975 55.1236 64.3366 55.2207 63.7975C55.3179 63.2584 55.4126 62.797 55.5024 62.4133C55.5729 62.1146 55.7113 61.8645 55.9177 61.6629C56.1217 61.4614 56.4009 61.3618 56.7506 61.3618C57.1003 61.3618 57.3456 61.4686 57.4815 61.6823C57.6175 61.896 57.6855 62.1826 57.6855 62.5396C57.6855 62.6367 57.6758 62.7678 57.6564 62.933C57.637 63.0981 57.6127 63.2802 57.5835 63.4793C57.5544 63.6785 57.5228 63.8824 57.4913 64.0937C57.4597 64.305 57.4281 64.4993 57.399 64.679C57.3698 64.8587 57.3456 65.0141 57.3261 65.1476C57.3067 65.2812 57.297 65.371 57.297 65.4147H57.4913C57.5301 65.3443 57.5933 65.2278 57.6758 65.0699C57.7608 64.9096 57.8579 64.7275 57.9672 64.5187C58.0765 64.3098 58.1955 64.0913 58.3218 63.8606C58.448 63.6299 58.567 63.4089 58.6763 63.1976C58.788 62.9864 58.8876 62.7994 58.9774 62.6367C59.0673 62.474 59.1377 62.355 59.1814 62.2749C59.3902 61.9252 59.6258 61.6848 59.8929 61.5536C60.16 61.4225 60.4539 61.3594 60.7793 61.3594C61.1047 61.3594 61.3621 61.4954 61.5539 61.7698C61.7458 62.0442 61.8405 62.4206 61.8405 62.9014C61.8405 62.9718 61.8259 63.0932 61.7968 63.2608C61.7676 63.4308 61.7288 63.6323 61.685 63.8654C61.6389 64.0986 61.5879 64.356 61.5345 64.6352C61.4786 64.9145 61.4276 65.201 61.3839 65.4925C61.3378 65.7839 61.3014 66.0728 61.2722 66.3594C61.2431 66.6459 61.2285 66.9082 61.2285 67.1486C61.2285 67.5517 61.2795 67.882 61.3791 68.1418C61.4786 68.4016 61.6365 68.5328 61.8526 68.5328C61.9497 68.5328 62.0614 68.5036 62.1877 68.4453C62.314 68.3871 62.45 68.3118 62.5981 68.2171C62.7438 68.1224 62.8944 68.0131 63.0474 67.8917C63.2004 67.7678 63.3509 67.6416 63.5015 67.5104C63.8463 67.2044 64.2057 66.862 64.5845 66.4784L64.7496 68.6615L64.2615 69.033C63.9944 69.2346 63.7249 69.4361 63.448 69.6377C63.1712 69.8392 62.8847 70.0189 62.586 70.1792C62.2873 70.3395 61.974 70.4682 61.6511 70.5702C61.3281 70.6722 60.9857 70.7207 60.6287 70.7207C60.2717 70.7207 59.9706 70.4633 59.7278 69.9461C59.485 69.4288 59.3635 68.6736 59.3635 67.6804C59.3635 67.2894 59.3902 66.8693 59.4412 66.4177C59.4922 65.966 59.5578 65.4803 59.6355 64.9606H59.4801L56.9255 70.0286C56.7943 70.2958 56.6486 70.4779 56.4859 70.575C56.3232 70.6722 56.1338 70.7207 55.9201 70.7207C55.653 70.7207 55.4393 70.6649 55.2766 70.5507C55.1139 70.4366 54.99 70.2836 54.9002 70.0918C54.8128 69.8999 54.7545 69.6814 54.7254 69.4385C54.6962 69.1957 54.6816 68.9432 54.6816 68.6833L54.6865 68.6785Z" fill="white"/>
<path d="M63.7228 67.5585C63.7034 67.0704 63.684 66.6479 63.6645 66.2861C63.6451 65.9267 63.6281 65.5988 63.6111 65.3074C63.5941 65.016 63.5844 64.7465 63.5771 64.4988C63.5698 64.2511 63.5674 63.9985 63.5674 63.7387C63.5674 63.0685 63.599 62.5488 63.6597 62.1748C63.7204 61.8009 63.8564 61.5969 64.0652 61.5653L65.2357 61.3808C65.2672 61.3735 65.2988 61.3686 65.3279 61.3662C65.3571 61.3638 65.3887 61.3613 65.4202 61.3613C65.6412 61.3613 65.8112 61.4269 65.9326 61.5556C66.0516 61.6867 66.1147 61.8349 66.122 62.0048L65.7408 68.1753L65.8768 68.1656L68.4411 62.0534C68.4605 61.9636 68.5018 61.8737 68.5674 61.7911C68.633 61.7062 68.7179 61.6333 68.8199 61.5726C68.9244 61.5119 69.0385 61.4609 69.1648 61.422C69.291 61.3832 69.427 61.3638 69.5703 61.3638C69.9467 61.3638 70.2502 61.439 70.4761 61.592C70.7019 61.745 70.8185 61.9417 70.8185 62.1821C70.8185 62.3642 70.7942 62.5367 70.7456 62.6994C70.6971 62.8621 70.6291 63.0393 70.5416 63.2312C70.4542 63.423 70.3498 63.6367 70.2308 63.8698C70.1094 64.1029 69.9783 64.3798 69.8374 64.6979C69.7913 64.8145 69.7524 64.9359 69.7209 65.0573C69.6893 65.169 69.6602 65.2928 69.6383 65.4337C69.6164 65.5745 69.6043 65.7178 69.6043 65.8684C69.6043 66.0189 69.6237 66.1768 69.6626 66.3273C69.7014 66.4779 69.7694 66.6115 69.8666 66.7329C69.9637 66.8543 70.0973 66.949 70.2672 67.0194C70.4372 67.0898 70.6534 67.1263 70.9205 67.1263C71.1147 67.1263 71.3406 67.0753 71.598 66.9757C71.8554 66.8761 72.0958 66.7596 72.3241 66.6309C72.5912 66.4803 72.8632 66.3128 73.1424 66.1233V68.4133C72.7126 68.6853 72.2706 68.9038 71.8117 69.0665C71.3527 69.2292 70.9156 69.3094 70.5004 69.3094C70.1507 69.3094 69.835 69.2559 69.5606 69.1491C69.2838 69.0422 69.0506 68.8965 68.8588 68.7144C68.667 68.5323 68.5188 68.3283 68.4095 68.1C68.3027 67.8718 68.2444 67.6362 68.2396 67.3885C68.0502 67.7795 67.8364 68.1777 67.596 68.5881C67.3556 68.9985 67.1079 69.3676 66.8505 69.7003C66.5931 70.0306 66.3381 70.3026 66.0807 70.5138C65.8233 70.7251 65.5829 70.8295 65.3547 70.8295C64.9783 70.8295 64.6844 70.7348 64.478 70.543C64.2716 70.3511 64.1162 70.1083 64.0142 69.8169C63.9122 69.5255 63.8491 69.2074 63.8199 68.8625C63.7908 68.5177 63.7665 68.1899 63.7471 67.8791L63.7277 67.5682L63.7228 67.5585Z" fill="white"/>
<path d="M78.4875 68.6391C78.2544 68.8528 77.963 69.0835 77.6157 69.3263C77.2685 69.5692 76.8921 69.795 76.489 69.999C76.0858 70.203 75.6754 70.3754 75.2553 70.5114C74.8352 70.6474 74.437 70.7154 74.0606 70.7154C73.723 70.7154 73.4389 70.6692 73.2082 70.5745C72.9775 70.4798 72.7906 70.3487 72.6473 70.1811C72.504 70.0111 72.402 69.8047 72.3413 69.5619C72.2806 69.319 72.249 69.0495 72.249 68.7581C72.249 68.3477 72.2952 67.8717 72.3899 67.3302C72.4846 66.7887 72.5987 66.2253 72.7347 65.6449C72.8707 65.0645 73.0164 64.4842 73.1694 63.9062C73.3224 63.3283 73.4559 62.794 73.5749 62.3084C73.6211 62.1384 73.7109 61.9951 73.8469 61.8737C73.9829 61.7523 74.1383 61.6551 74.3107 61.5823C74.4831 61.5094 74.6628 61.4511 74.8474 61.4171C75.0319 61.3807 75.1995 61.3637 75.3501 61.3637C75.622 61.3637 75.809 61.4147 75.9061 61.5143C76.0033 61.6138 76.0518 61.7498 76.0518 61.9198C76.0518 62.0631 76.0203 62.2695 75.9547 62.539C75.8891 62.8086 75.809 63.1146 75.7119 63.4545C75.6147 63.7945 75.5103 64.1636 75.3986 64.557C75.2869 64.9504 75.1849 65.3438 75.0878 65.7372C74.9906 66.1306 74.9081 66.5143 74.8449 66.8882C74.7794 67.2622 74.7478 67.5973 74.7478 67.896C74.7478 68.1947 74.7794 68.4206 74.8449 68.593C74.9105 68.7654 75.0441 68.8504 75.2456 68.8504C75.4787 68.8504 75.7386 68.7702 76.0251 68.6075C76.3117 68.4448 76.6007 68.2481 76.8921 68.0174C77.1835 67.7867 77.47 67.5488 77.7493 67.3011C78.0285 67.0534 78.2762 66.8421 78.4899 66.6673V68.6464L78.4875 68.6391ZM74.131 58.6197C74.131 58.4691 74.1626 58.3016 74.2281 58.1121C74.2937 57.9227 74.3981 57.7479 74.5438 57.5803C74.6895 57.4152 74.8862 57.2743 75.1291 57.1602C75.3719 57.0461 75.6755 56.9902 76.0397 56.9902C76.268 56.9902 76.4817 57.0169 76.6832 57.0679C76.8848 57.1189 77.0596 57.1991 77.2102 57.3059C77.3607 57.4128 77.4773 57.5536 77.5647 57.7309C77.6521 57.9082 77.6959 58.1146 77.6959 58.355C77.6959 58.576 77.6594 58.7897 77.589 58.9985C77.5186 59.2073 77.4044 59.3919 77.2466 59.5546C77.0912 59.7173 76.8945 59.8484 76.6565 59.948C76.4185 60.05 76.1344 60.0985 75.8042 60.0985C75.2311 60.0985 74.811 59.965 74.5365 59.693C74.2621 59.421 74.1262 59.0641 74.1262 58.6148L74.131 58.6197Z" fill="white"/>
<path d="M85.9062 68.5317C85.2821 68.896 84.726 69.2141 84.2403 69.4861C83.7522 69.758 83.3199 69.9863 82.9387 70.1684C82.5599 70.3506 82.2199 70.4865 81.9261 70.5788C81.6322 70.6711 81.3627 70.7148 81.1223 70.7148C80.6293 70.7148 80.1922 70.5642 79.8158 70.2656C79.4394 69.9669 79.1237 69.537 78.8712 68.9737C78.6186 68.4127 78.4268 67.7304 78.3005 66.9314C78.1742 66.1325 78.1111 65.2316 78.1111 64.2311C78.1111 63.8401 78.1281 63.4249 78.1597 62.9829C78.1912 62.5409 78.2374 62.1038 78.2957 61.6667C78.1014 61.64 77.9508 61.6157 77.8415 61.5939C77.7323 61.572 77.6206 61.5477 77.4991 61.5259C77.3777 61.504 77.2272 61.4797 77.0402 61.453C76.8556 61.4263 76.5861 61.3947 76.2364 61.3559C76.081 61.3365 75.9596 61.3 75.8746 61.2442C75.7896 61.1883 75.7289 61.1252 75.69 61.0499C75.6512 60.9746 75.6293 60.8969 75.622 60.8168C75.6147 60.7367 75.6123 60.6662 75.6123 60.608C75.6123 60.4792 75.6754 60.3797 75.8017 60.3117C75.928 60.2437 76.0907 60.1927 76.2898 60.1611C76.4889 60.1296 76.7051 60.1101 76.9431 60.1077C77.181 60.1053 77.4069 60.1077 77.6254 60.1126C77.844 60.1198 78.0382 60.1247 78.2107 60.1271C78.3831 60.1296 78.5021 60.1271 78.5652 60.1126C78.74 59.2359 78.9635 58.386 79.233 57.5628C79.5025 56.742 79.8037 56.0111 80.1388 55.37C80.4739 54.7289 80.8381 54.2165 81.2364 53.8304C81.6322 53.4443 82.0475 53.25 82.4846 53.25C82.7638 53.25 83.0188 53.3277 83.2495 53.4831C83.4802 53.6385 83.6769 53.8474 83.8396 54.1072C84.0023 54.367 84.1262 54.6706 84.2136 55.0178C84.301 55.3651 84.3447 55.7269 84.3447 56.1058C84.3447 56.4239 84.2986 56.7614 84.2087 57.1135C84.1164 57.4681 83.995 57.8275 83.8372 58.1966C83.6818 58.5633 83.4972 58.9348 83.2859 59.3136C83.0747 59.69 82.8513 60.064 82.6181 60.4355C82.6764 60.4428 82.7736 60.4477 82.9095 60.4501C83.0455 60.4525 83.2034 60.4574 83.3831 60.4647C83.5628 60.472 83.7546 60.4793 83.9635 60.489C84.1723 60.4987 84.3738 60.506 84.5681 60.5132C84.7624 60.5205 84.9445 60.5254 85.1145 60.5327C85.2845 60.54 85.4229 60.5448 85.5346 60.5521C85.6657 60.5594 85.758 60.6225 85.8163 60.7464C85.8746 60.8702 85.9037 61.0256 85.9037 61.215C85.9037 61.4433 85.8382 61.6279 85.7095 61.7711C85.5783 61.9144 85.4375 61.9848 85.2796 61.9848H81.5375C81.3481 62.2447 81.1587 62.4997 80.9669 62.7498C80.775 62.9999 80.5977 63.2257 80.435 63.4273C80.4083 63.8304 80.3865 64.2262 80.367 64.6172C80.3598 64.7872 80.3549 64.9596 80.3476 65.1393C80.3403 65.319 80.3355 65.4938 80.3282 65.6711C80.3209 65.8459 80.3161 66.0159 80.3136 66.1786C80.3112 66.3413 80.3088 66.4895 80.3088 66.6279C80.3088 66.98 80.3403 67.2738 80.4059 67.5142C80.4715 67.7546 80.5662 67.9513 80.6876 68.1043C80.8114 68.2573 80.962 68.3666 81.1417 68.4346C81.3214 68.5026 81.5205 68.5366 81.7415 68.5366C81.8775 68.5366 82.0475 68.505 82.2539 68.4394C82.4579 68.3739 82.6837 68.284 82.9265 68.1723C83.1694 68.0582 83.4268 67.9246 83.6963 67.7668C83.9659 67.6089 84.233 67.4414 84.4953 67.2544C84.7575 67.0698 85.0101 66.8731 85.2505 66.6692C85.4909 66.4652 85.7095 66.2539 85.9037 66.0402V68.5366L85.9062 68.5317ZM82.7881 56.1932C82.7881 56.1228 82.7833 56.0426 82.7736 55.9552C82.7638 55.8678 82.742 55.7852 82.7104 55.7075C82.6789 55.6298 82.6279 55.5642 82.5599 55.5132C82.4919 55.4622 82.3947 55.4355 82.2733 55.4355C82.1033 55.4355 81.9333 55.5861 81.7609 55.8848C81.5885 56.1835 81.4234 56.5647 81.2631 57.031C81.1028 57.4948 80.9547 58.0072 80.8139 58.5657C80.673 59.1242 80.5467 59.6682 80.4278 60.1927C80.5249 60.2048 80.622 60.217 80.7192 60.2267C80.8163 60.2364 80.9183 60.2486 81.0203 60.2607C81.2145 59.928 81.4185 59.571 81.6298 59.1825C81.8411 58.7964 82.0305 58.4151 82.2005 58.0412C82.3704 57.6672 82.5089 57.3175 82.6206 56.9945C82.7298 56.6691 82.7857 56.4044 82.7857 56.1956L82.7881 56.1932Z" fill="white"/>
<path d="M95.7964 68.3289C95.6458 68.5377 95.4467 68.7806 95.1966 69.0598C94.9465 69.3391 94.6648 69.6062 94.354 69.8588C94.0407 70.1113 93.708 70.3274 93.351 70.5023C92.9941 70.6771 92.6371 70.7645 92.2801 70.7645C91.8503 70.7645 91.4933 70.6261 91.2068 70.3493C90.9202 70.0725 90.675 69.6718 90.4661 69.1448C90.3107 69.3269 90.1189 69.5115 89.8906 69.7009C89.6624 69.8903 89.4147 70.0603 89.1451 70.2133C88.8756 70.3663 88.5939 70.4901 88.3025 70.5897C88.0111 70.6893 87.7172 70.7354 87.4258 70.7354C87.115 70.7354 86.809 70.6723 86.5152 70.546C86.2189 70.4197 85.9591 70.2376 85.7308 69.9996C85.5026 69.7616 85.3204 69.4727 85.1845 69.1327C85.0485 68.7927 84.9805 68.4066 84.9805 67.9768C84.9805 67.4887 85.0485 66.9884 85.1845 66.4761C85.3204 65.9637 85.5098 65.461 85.7503 64.9705C85.9907 64.4799 86.2748 64.0161 86.6026 63.5814C86.9304 63.1468 87.2898 62.7655 87.6808 62.4401C88.0718 62.1147 88.4822 61.8573 88.9144 61.6655C89.3467 61.4736 89.7862 61.3789 90.2354 61.3789C90.386 61.3789 90.5026 61.4081 90.5851 61.4663C90.6677 61.5246 90.7406 61.5926 90.794 61.6655C90.8498 61.7407 90.9032 61.8136 90.9542 61.884C91.0052 61.9544 91.0708 62.0079 91.1485 62.0394C91.2262 62.071 91.3064 62.0928 91.3865 62.1026C91.4666 62.1123 91.5516 62.1171 91.6342 62.1171C91.7046 62.1171 91.7775 62.1171 91.8527 62.1123C91.928 62.1098 92.0009 62.1074 92.0713 62.1074C92.1684 62.1074 92.2607 62.1171 92.3433 62.1366C92.4258 62.156 92.5035 62.1973 92.5667 62.2628C92.6322 62.3284 92.6832 62.4182 92.7172 62.5348C92.7537 62.6514 92.7707 62.8116 92.7707 63.0132C92.7707 63.324 92.7391 63.6713 92.6735 64.0501C92.608 64.4314 92.5375 64.8199 92.4598 65.2206C92.3821 65.6213 92.3093 66.0195 92.2461 66.4202C92.183 66.8209 92.149 67.1973 92.149 67.5567C92.149 67.8626 92.1757 68.1006 92.2316 68.273C92.2874 68.4455 92.404 68.5304 92.5861 68.5304C92.7221 68.5304 92.8654 68.4964 93.0159 68.4285C93.1665 68.3605 93.317 68.2706 93.47 68.1613C93.623 68.0521 93.776 67.9258 93.929 67.7874C94.082 67.6465 94.2253 67.5032 94.3637 67.3527C94.6818 67.0006 95.0023 66.6048 95.3277 66.1628L95.7964 68.3265V68.3289ZM87.472 67.5591C87.472 67.7218 87.4841 67.8796 87.506 68.0326C87.5278 68.1856 87.5691 68.3216 87.6274 68.443C87.6857 68.5644 87.7634 68.6616 87.8605 68.7344C87.9576 68.8097 88.0815 68.8461 88.2296 68.8461C88.47 68.8461 88.6886 68.7417 88.8828 68.5353C89.0771 68.3289 89.2471 68.0763 89.3904 67.7849C89.5336 67.4935 89.6478 67.19 89.7352 66.8792C89.8226 66.5683 89.8809 66.3085 89.9052 66.0996L90.5001 63.2342C90.233 63.2342 89.9732 63.2997 89.7206 63.4333C89.4681 63.5669 89.2277 63.7466 89.0043 63.9748C88.7809 64.2031 88.5744 64.4629 88.385 64.7543C88.1956 65.0457 88.0329 65.3541 87.8969 65.6747C87.7609 65.9977 87.6541 66.3206 87.5812 66.6436C87.5084 66.9666 87.4695 67.275 87.4695 67.5591H87.472Z" fill="white"/>
<path d="M102.757 68.5317C102.133 68.896 101.577 69.2141 101.091 69.4861C100.603 69.758 100.171 69.9863 99.7893 70.1684C99.4104 70.3506 99.0705 70.4865 98.7766 70.5788C98.4828 70.6711 98.2133 70.7148 97.9729 70.7148C97.4799 70.7148 97.0428 70.5642 96.6664 70.2656C96.29 69.9669 95.9743 69.537 95.7218 68.9737C95.4692 68.4127 95.2774 67.7304 95.1511 66.9314C95.0248 66.1325 94.9617 65.2316 94.9617 64.2311C94.9617 63.8401 94.9787 63.4249 95.0102 62.9829C95.0418 62.5409 95.088 62.1038 95.1462 61.6667C94.952 61.64 94.8014 61.6157 94.6921 61.5939C94.5829 61.572 94.4711 61.5477 94.3497 61.5259C94.2283 61.504 94.0778 61.4797 93.8908 61.453C93.7062 61.4263 93.4367 61.3947 93.087 61.3559C92.9316 61.3365 92.8101 61.3 92.7252 61.2442C92.6402 61.1883 92.5794 61.1252 92.5406 61.0499C92.5017 60.9746 92.4799 60.8969 92.4726 60.8168C92.4653 60.7367 92.4629 60.6662 92.4629 60.608C92.4629 60.4792 92.526 60.3797 92.6523 60.3117C92.7786 60.2437 92.9413 60.1927 93.1404 60.1611C93.3395 60.1296 93.5557 60.1101 93.7936 60.1077C94.0316 60.1053 94.2574 60.1077 94.476 60.1126C94.6946 60.1198 94.8888 60.1247 95.0612 60.1271C95.2337 60.1296 95.3526 60.1271 95.4158 60.1126C95.5906 59.2359 95.814 58.386 96.0836 57.5628C96.3531 56.742 96.6542 56.0111 96.9894 55.37C97.3245 54.7289 97.6887 54.2165 98.087 53.8304C98.4828 53.4443 98.8981 53.25 99.3352 53.25C99.6144 53.25 99.8694 53.3277 100.1 53.4831C100.331 53.6385 100.527 53.8474 100.69 54.1072C100.853 54.367 100.977 54.6706 101.064 55.0178C101.152 55.3651 101.195 55.7269 101.195 56.1058C101.195 56.4239 101.149 56.7614 101.059 57.1135C100.967 57.4681 100.846 57.8275 100.688 58.1966C100.532 58.5633 100.348 58.9348 100.137 59.3136C99.9253 59.69 99.7018 60.064 99.4687 60.4355C99.527 60.4428 99.6241 60.4477 99.7601 60.4501C99.8961 60.4525 100.054 60.4574 100.234 60.4647C100.413 60.472 100.605 60.4793 100.814 60.489C101.023 60.4987 101.224 60.506 101.419 60.5132C101.613 60.5205 101.795 60.5254 101.965 60.5327C102.135 60.54 102.273 60.5448 102.385 60.5521C102.516 60.5594 102.609 60.6225 102.667 60.7464C102.725 60.8702 102.754 61.0256 102.754 61.215C102.754 61.4433 102.689 61.6279 102.56 61.7711C102.429 61.9144 102.288 61.9848 102.13 61.9848H98.3881C98.1987 62.2447 98.0093 62.4997 97.8174 62.7498C97.6256 62.9999 97.4483 63.2257 97.2856 63.4273C97.2589 63.8304 97.2371 64.2262 97.2176 64.6172C97.2103 64.7872 97.2055 64.9596 97.1982 65.1393C97.1909 65.319 97.1861 65.4938 97.1788 65.6711C97.1715 65.8459 97.1666 66.0159 97.1642 66.1786C97.1618 66.3413 97.1593 66.4895 97.1593 66.6279C97.1593 66.98 97.1909 67.2738 97.2565 67.5142C97.322 67.7546 97.4168 67.9513 97.5382 68.1043C97.662 68.2573 97.8126 68.3666 97.9923 68.4346C98.172 68.5026 98.3711 68.5366 98.5921 68.5366C98.7281 68.5366 98.8981 68.505 99.1045 68.4394C99.3084 68.3739 99.5343 68.284 99.7771 68.1723C100.02 68.0582 100.277 67.9246 100.547 67.7668C100.816 67.6089 101.084 67.4414 101.346 67.2544C101.608 67.0698 101.861 66.8731 102.101 66.6692C102.341 66.4652 102.56 66.2539 102.754 66.0402V68.5366L102.757 68.5317ZM99.6387 56.1932C99.6387 56.1228 99.6339 56.0426 99.6241 55.9552C99.6144 55.8678 99.5926 55.7852 99.561 55.7075C99.5294 55.6298 99.4784 55.5642 99.4104 55.5132C99.3424 55.4622 99.2453 55.4355 99.1239 55.4355C98.9539 55.4355 98.7839 55.5861 98.6115 55.8848C98.4391 56.1835 98.274 56.5647 98.1137 57.031C97.9534 57.4948 97.8053 58.0072 97.6644 58.5657C97.5236 59.1242 97.3973 59.6682 97.2783 60.1927C97.3755 60.2048 97.4726 60.217 97.5697 60.2267C97.6669 60.2364 97.7689 60.2486 97.8709 60.2607C98.0651 59.928 98.2691 59.571 98.4804 59.1825C98.6916 58.7964 98.8811 58.4151 99.051 58.0412C99.221 57.6672 99.3594 57.3175 99.4712 56.9945C99.5804 56.6691 99.6363 56.4044 99.6363 56.1956L99.6387 56.1932Z" fill="white"/>
<path d="M108.38 68.6391C108.147 68.8528 107.856 69.0835 107.508 69.3263C107.161 69.5692 106.785 69.795 106.382 69.999C105.978 70.203 105.568 70.3754 105.148 70.5114C104.728 70.6474 104.33 70.7154 103.953 70.7154C103.616 70.7154 103.332 70.6692 103.101 70.5745C102.87 70.4798 102.683 70.3487 102.54 70.1811C102.397 70.0111 102.295 69.8047 102.234 69.5619C102.173 69.319 102.142 69.0495 102.142 68.7581C102.142 68.3477 102.188 67.8717 102.282 67.3302C102.377 66.7887 102.491 66.2253 102.627 65.6449C102.763 65.0645 102.909 64.4842 103.062 63.9062C103.215 63.3283 103.348 62.794 103.467 62.3084C103.514 62.1384 103.603 61.9951 103.739 61.8737C103.875 61.7523 104.031 61.6551 104.203 61.5823C104.376 61.5094 104.555 61.4511 104.74 61.4171C104.925 61.3807 105.092 61.3637 105.243 61.3637C105.515 61.3637 105.702 61.4147 105.799 61.5143C105.896 61.6138 105.944 61.7498 105.944 61.9198C105.944 62.0631 105.913 62.2695 105.847 62.539C105.782 62.8086 105.702 63.1146 105.604 63.4545C105.507 63.7945 105.403 64.1636 105.291 64.557C105.179 64.9504 105.077 65.3438 104.98 65.7372C104.883 66.1306 104.801 66.5143 104.738 66.8882C104.672 67.2622 104.64 67.5973 104.64 67.896C104.64 68.1947 104.672 68.4206 104.738 68.593C104.803 68.7654 104.937 68.8504 105.138 68.8504C105.371 68.8504 105.631 68.7702 105.918 68.6075C106.204 68.4448 106.493 68.2481 106.785 68.0174C107.076 67.7867 107.363 67.5488 107.642 67.3011C107.921 67.0534 108.169 66.8421 108.383 66.6673V68.6464L108.38 68.6391ZM104.024 58.6197C104.024 58.4691 104.055 58.3016 104.121 58.1121C104.186 57.9227 104.291 57.7479 104.436 57.5803C104.582 57.4152 104.779 57.2743 105.022 57.1602C105.264 57.0461 105.568 56.9902 105.932 56.9902C106.161 56.9902 106.374 57.0169 106.576 57.0679C106.777 57.1189 106.952 57.1991 107.103 57.3059C107.253 57.4128 107.37 57.5536 107.457 57.7309C107.545 57.9082 107.588 58.1146 107.588 58.355C107.588 58.576 107.552 58.7897 107.482 58.9985C107.411 59.2073 107.297 59.3919 107.139 59.5546C106.984 59.7173 106.787 59.8484 106.549 59.948C106.311 60.05 106.027 60.0985 105.697 60.0985C105.124 60.0985 104.704 59.965 104.429 59.693C104.155 59.421 104.019 59.0641 104.019 58.6148L104.024 58.6197Z" fill="white"/>
<path d="M113.672 63.4153C113.861 63.7916 114.002 64.1899 114.097 64.61C114.191 65.0301 114.237 65.4308 114.237 65.8145C114.237 66.1982 114.196 66.5843 114.111 66.9752C114.026 67.3662 113.905 67.7426 113.747 68.1069C113.587 68.4711 113.392 68.8111 113.162 69.1292C112.931 69.4473 112.669 69.7241 112.372 69.9573C112.076 70.1904 111.753 70.3774 111.403 70.5134C111.054 70.6494 110.68 70.7174 110.282 70.7174C109.711 70.7174 109.22 70.5935 108.815 70.3434C108.409 70.0933 108.077 69.7654 107.817 69.3647C107.557 68.9616 107.368 68.5075 107.246 68C107.125 67.4925 107.066 66.9801 107.066 66.4604C107.066 65.7465 107.173 65.0787 107.389 64.457C107.603 63.8378 107.911 63.2963 108.31 62.8397C108.71 62.3808 109.199 62.0214 109.776 61.7567C110.354 61.4944 111.005 61.3633 111.726 61.3633C112.343 61.3633 112.921 61.4604 113.46 61.6498C113.999 61.8417 114.504 62.0991 114.976 62.4196C115.447 62.7402 115.886 63.1093 116.292 63.527C116.697 63.9422 117.076 64.372 117.428 64.814L117.244 66.1884C117.069 65.9553 116.831 65.7003 116.532 65.4284C116.233 65.1564 115.915 64.8893 115.583 64.6294C115.248 64.3696 114.917 64.1243 114.594 63.8936C114.269 63.6629 113.99 63.4687 113.757 63.3133L113.679 63.4201L113.672 63.4153ZM110.66 68.8451C110.881 68.8451 111.095 68.7334 111.304 68.51C111.513 68.2866 111.695 68.0024 111.85 67.6625C112.006 67.3225 112.132 66.9437 112.224 66.5308C112.317 66.118 112.365 65.7246 112.365 65.3458C112.365 65.0471 112.343 64.7703 112.297 64.5129C112.251 64.2555 112.183 64.0345 112.093 63.8451C112.001 63.6557 111.884 63.5075 111.743 63.3958C111.6 63.2841 111.428 63.2307 111.226 63.2307C110.959 63.2307 110.707 63.3448 110.466 63.5707C110.226 63.7989 110.014 64.0879 109.832 64.4425C109.65 64.797 109.507 65.188 109.402 65.6178C109.298 66.0476 109.247 66.4604 109.247 66.8562C109.247 67.1282 109.274 67.3856 109.325 67.626C109.376 67.8664 109.458 68.0753 109.568 68.255C109.677 68.4347 109.825 68.578 110.007 68.6848C110.189 68.7917 110.408 68.8451 110.66 68.8451Z" fill="white"/>
<path d="M116.197 68.6785C116.197 68.2486 116.224 67.7533 116.275 67.1923C116.326 66.6314 116.392 66.0583 116.469 65.4779C116.547 64.8975 116.634 64.3366 116.731 63.7975C116.829 63.2584 116.923 62.797 117.013 62.4133C117.084 62.1146 117.222 61.8645 117.428 61.6629C117.632 61.4614 117.912 61.3618 118.261 61.3618C118.611 61.3618 118.856 61.4686 118.992 61.6823C119.128 61.896 119.196 62.1826 119.196 62.5396C119.196 62.6367 119.187 62.7678 119.167 62.933C119.148 63.0981 119.123 63.2802 119.094 63.4793C119.065 63.6785 119.034 63.8824 119.002 64.0937C118.97 64.305 118.939 64.4993 118.91 64.679C118.881 64.8587 118.856 65.0141 118.837 65.1476C118.817 65.2812 118.808 65.371 118.808 65.4147H119.002C119.041 65.3443 119.104 65.2278 119.187 65.0699C119.272 64.9096 119.369 64.7275 119.478 64.5187C119.587 64.3098 119.706 64.0913 119.833 63.8606C119.959 63.6299 120.078 63.4089 120.187 63.1976C120.299 62.9864 120.398 62.7994 120.488 62.6367C120.578 62.474 120.648 62.355 120.692 62.2749C120.901 61.9252 121.137 61.6848 121.404 61.5536C121.671 61.4225 121.965 61.3594 122.29 61.3594C122.615 61.3594 122.873 61.4954 123.065 61.7698C123.256 62.0442 123.351 62.4206 123.351 62.9014C123.351 62.9718 123.337 63.0932 123.307 63.2608C123.278 63.4308 123.239 63.6323 123.196 63.8654C123.15 64.0986 123.099 64.356 123.045 64.6352C122.989 64.9145 122.938 65.201 122.895 65.4925C122.849 65.7839 122.812 66.0728 122.783 66.3594C122.754 66.6459 122.739 66.9082 122.739 67.1486C122.739 67.5517 122.79 67.882 122.89 68.1418C122.989 68.4016 123.147 68.5328 123.363 68.5328C123.46 68.5328 123.572 68.5036 123.698 68.4453C123.825 68.3871 123.961 68.3118 124.109 68.2171C124.255 68.1224 124.405 68.0131 124.558 67.8917C124.711 67.7678 124.862 67.6416 125.012 67.5104C125.357 67.2044 125.716 66.862 126.095 66.4784L126.26 68.6615L125.772 69.033C125.505 69.2346 125.236 69.4361 124.959 69.6377C124.682 69.8392 124.395 70.0189 124.097 70.1792C123.798 70.3395 123.485 70.4682 123.162 70.5702C122.839 70.6722 122.496 70.7207 122.139 70.7207C121.782 70.7207 121.481 70.4633 121.239 69.9461C120.996 69.4288 120.874 68.6736 120.874 67.6804C120.874 67.2894 120.901 66.8693 120.952 66.4177C121.003 65.966 121.069 65.4803 121.146 64.9606H120.991L118.436 70.0286C118.305 70.2958 118.159 70.4779 117.997 70.575C117.834 70.6722 117.645 70.7207 117.431 70.7207C117.164 70.7207 116.95 70.6649 116.787 70.5507C116.625 70.4366 116.501 70.2836 116.411 70.0918C116.324 69.8999 116.265 69.6814 116.236 69.4385C116.207 69.1957 116.192 68.9432 116.192 68.6833L116.197 68.6785Z" fill="white"/>
</g>
<defs>
<clipPath id="clip0_392_1731">
<rect width="126.265" height="93.9437" fill="white"/>
</clipPath>
</defs>
</svg>