


<svg width="24" height="24" viewBox="0 0 24 24" fill="none" xmlns="http://www.w3.org/2000/svg">
<mask id="mask0_447_1483" style="mask-type:alpha" maskUnits="userSpaceOnUse" x="0" y="0" width="24" height="24">
<rect width="24" height="24" fill="#D9D9D9"/>
</mask>
<g mask="url(#mask0_447_1483)">
<path d="M1 15V9H4.5C4.91667 9 5.27083 9.14583 5.5625 9.4375C5.85417 9.72917 6 10.0833 6 10.5V11.5C6 11.8 5.9125 12.075 5.7375 12.325C5.5625 12.575 5.35 12.7667 5.1 12.9L6 15H4.5L3.65 13H2.5V15H1ZM7 15V13.5H10V12.75H8C7.71667 12.75 7.47917 12.6542 7.2875 12.4625C7.09583 12.2708 7 12.0333 7 11.75V10C7 9.71667 7.09583 9.47917 7.2875 9.2875C7.47917 9.09583 7.71667 9 8 9H11.5V10.5H8.5V11.25H10.5C10.7833 11.25 11.0208 11.3458 11.2125 11.5375C11.4042 11.7292 11.5 11.9667 11.5 12.25V14C11.5 14.2833 11.4042 14.5208 11.2125 14.7125C11.0208 14.9042 10.7833 15 10.5 15H7ZM14.25 15L12.5 9H14L15 12.425L16 9H17.5L15.75 15H14.25ZM18 15V9H21.5C21.9167 9 22.2708 9.14583 22.5625 9.4375C22.8542 9.72917 23 10.0833 23 10.5V11.5C23 11.9167 22.8542 12.2708 22.5625 12.5625C22.2708 12.8542 21.9167 13 21.5 13H19.5V15H18ZM2.5 11.5H4.5V10.5H2.5V11.5ZM19.5 11.5H21.5V10.5H19.5V11.5Z" fill="#5D6679"/>
</g>
</svg>
