<svg xmlns="http://www.w3.org/2000/svg" width="39" height="27" viewBox="0 0 39 27" fill="none">
<path d="M19.2827 3.43769C21.0642 3.43769 22.8467 3.43769 24.6282 3.43769C26.4784 3.43769 28.3276 3.4347 30.1778 3.4347C32.1635 3.4347 34.1491 3.43769 36.1347 3.43869C36.4275 3.43869 36.7193 3.43869 37.012 3.43271C37.3307 3.42674 37.4362 3.31819 37.4372 2.99754C37.4392 2.52852 37.4372 2.0595 37.4372 1.58948C37.4362 1.24593 37.3317 1.13938 36.9861 1.13938C35.0543 1.13938 33.1234 1.14137 31.1916 1.14137C31.0631 1.14137 30.9307 1.14137 30.8072 1.11249C30.5035 1.04179 30.3302 0.788853 30.365 0.495091C30.3979 0.217261 30.6259 0.0121259 30.9287 0.00913853C31.554 0.00316371 32.1804 0.00515531 32.8058 0.00515531C34.1999 0.00515531 35.594 0.0181008 36.9881 0.000176297C37.7997 -0.0107775 38.3673 0.490112 38.5286 1.11249C38.5555 1.21605 38.5675 1.32559 38.5685 1.43314C38.5724 1.99079 38.5734 2.54844 38.5695 3.10609C38.5645 3.87186 37.9849 4.49424 37.2221 4.55498C37.0598 4.56793 36.8955 4.5739 36.7332 4.56494C36.555 4.55498 36.4942 4.62469 36.4952 4.80194C36.5012 5.50199 36.5032 6.20304 36.4952 6.90308C36.4852 7.74553 36.0999 8.36393 35.3281 8.7025C35.0871 8.80806 34.8043 8.83793 34.5375 8.86083C34.2198 8.88772 33.8981 8.87876 33.5795 8.8688C33.4002 8.86283 33.3445 8.92656 33.3455 9.10381C33.3495 10.3147 33.3455 11.5246 33.3445 12.7355C33.3445 14.7281 33.3445 16.7207 33.3445 18.7133C33.3445 20.5625 33.3485 22.4127 33.3475 24.2619C33.3475 24.9082 33.1135 25.442 32.5638 25.8104C31.5003 26.5244 30.0145 25.8423 29.902 24.5686C29.8054 23.4653 29.7536 22.357 29.6829 21.2516C29.5903 19.7997 29.4997 18.3479 29.4081 16.896C29.3274 15.6134 29.2448 14.3308 29.1651 13.0492C29.0824 11.7188 29.0008 10.3894 28.9261 9.059C28.9161 8.88274 28.8235 8.86681 28.6861 8.86681C27.7072 8.8698 26.7274 8.8688 25.7485 8.8688C23.9331 8.8688 22.1168 8.8688 20.3014 8.8698C18.5269 8.8698 16.7514 8.8698 14.9769 8.87079C13.3109 8.87079 11.6449 8.87079 9.97796 8.87179C9.66129 8.87179 9.66826 8.87179 9.64934 9.18049C9.55972 10.6184 9.46512 12.0574 9.3745 13.4953C9.28886 14.8526 9.2082 16.2099 9.12256 17.5671C9.03095 19.033 8.93734 20.4978 8.84473 21.9636C8.78996 22.825 8.74415 23.6874 8.67644 24.5487C8.6157 25.3225 7.97838 25.9857 7.2375 26.0773C6.39107 26.1818 5.6263 25.7427 5.35643 24.9749C5.28772 24.7797 5.24192 24.5647 5.24092 24.3595C5.23196 22.3261 5.23295 20.2927 5.23694 18.2602C5.23694 17.8928 5.39427 17.6866 5.68803 17.6239C6.0047 17.5562 6.29846 17.7494 6.35024 18.068C6.36817 18.1816 6.36618 18.2981 6.36618 18.4136C6.36817 20.3654 6.36817 22.3171 6.37215 24.2689C6.37215 24.7071 6.58625 24.951 6.9547 24.957C7.27335 24.962 7.51932 24.7558 7.5482 24.4352C7.59599 23.9074 7.63383 23.3777 7.6667 22.8489C7.72844 21.872 7.78022 20.8941 7.84096 19.9172C7.95548 18.0919 8.07498 16.2666 8.19049 14.4423C8.24526 13.5809 8.29704 12.7186 8.34982 11.8572C8.40558 10.948 8.45637 10.0379 8.5191 9.1297C8.53205 8.93751 8.48325 8.86681 8.27812 8.87079C7.72047 8.88274 7.16282 8.87677 6.60517 8.86781C6.42891 8.86482 6.36618 8.92556 6.36618 9.10381C6.37016 11.1502 6.36817 13.1976 6.36817 15.2439C6.36817 15.3186 6.37016 15.3933 6.36817 15.468C6.35522 15.8603 6.13615 16.1003 5.79558 16.0963C5.45601 16.0934 5.24092 15.8524 5.23494 15.455C5.22897 15.0129 5.22997 14.5708 5.22997 14.1286C5.22997 12.4557 5.22997 10.7827 5.23694 9.10979C5.23694 8.92158 5.1752 8.85785 4.98898 8.86581C4.6763 8.87876 4.36362 8.87677 4.05093 8.87179C2.90178 8.85486 2.09418 8.05125 2.07725 6.9001C2.06729 6.21996 2.07526 5.53983 2.07426 4.8597C2.07426 4.57689 2.07128 4.58286 1.79046 4.57191C1.54649 4.56295 1.29555 4.56892 1.06253 4.50917C0.454093 4.35084 -0.0248887 3.72946 0.00100222 3.05829C0.0209183 2.54246 0.0219141 2.02365 0.00100222 1.50782C-0.0288719 0.761966 0.633337 -0.00281111 1.47479 0.00615112C2.7534 0.0190966 4.03201 0.00714692 5.31063 0.00615112C7.83399 0.00615112 10.3564 0.00615112 12.8797 0.00615112C15.3483 0.00615112 17.8169 0.00615112 20.2855 0.00615112C22.8228 0.00615112 25.3601 0.00615112 27.8974 0.00615112C28.0199 0.00615112 28.1424 0.00316371 28.2649 0.00714692C28.6084 0.0190966 28.8454 0.244148 28.8514 0.557826C28.8564 0.875487 28.6114 1.12643 28.2639 1.1344C27.7879 1.14535 27.3119 1.14137 26.8359 1.14137C23.5717 1.14137 20.3074 1.14137 17.0432 1.14137C13.8128 1.14137 10.5824 1.13838 7.35202 1.13838C5.4341 1.13838 3.51619 1.14037 1.59827 1.14236C1.2348 1.14236 1.13721 1.24095 1.13721 1.60043C1.13721 2.06248 1.13721 2.52553 1.13921 2.98759C1.1402 3.32118 1.24675 3.4347 1.57437 3.4357C2.47159 3.43869 3.3698 3.4357 4.26702 3.4357C6.05549 3.4357 7.84395 3.4357 9.63241 3.4357C11.4348 3.4357 13.2372 3.43371 15.0386 3.43371C16.4527 3.43371 17.8677 3.43371 19.2817 3.43371V3.4357L19.2827 3.43769ZM19.2977 4.56992V4.5739C19.2021 4.5739 19.1075 4.5739 19.0119 4.5739C17.0193 4.57191 15.0277 4.56992 13.0351 4.56892C11.1311 4.56892 9.22712 4.56892 7.32314 4.56892C6.03159 4.56892 4.73903 4.57291 3.44748 4.57191C3.30807 4.57191 3.21048 4.58884 3.21147 4.7651C3.21645 5.48606 3.2045 6.20702 3.21844 6.92698C3.2284 7.42489 3.53312 7.71566 4.03002 7.73359C4.21325 7.74056 4.39747 7.73159 4.5807 7.73159C7.27335 7.73259 9.96601 7.73558 12.6587 7.73558C14.474 7.73558 16.2894 7.73259 18.1047 7.73159C19.9131 7.73159 21.7225 7.73458 23.5308 7.73458C25.2914 7.73458 27.053 7.73259 28.8136 7.73159C30.7036 7.73159 32.5936 7.73358 34.4847 7.72861C35.0622 7.72761 35.352 7.43883 35.358 6.86126C35.365 6.17515 35.356 5.48805 35.363 4.80094C35.365 4.62568 35.3052 4.56195 35.126 4.56295C33.4331 4.56793 31.7402 4.56593 30.0464 4.56593C28.2171 4.56593 26.3888 4.56593 24.5595 4.56593C22.8049 4.56593 21.0513 4.56593 19.2967 4.56593L19.2977 4.56992ZM32.2113 16.7127C32.2113 16.7127 32.2113 16.7127 32.2103 16.7127C32.2103 15.8225 32.2103 14.9322 32.2103 14.042C32.2103 12.3969 32.2093 10.7519 32.2142 9.10779C32.2142 8.93054 32.1555 8.8688 31.9782 8.87079C31.4076 8.87776 30.8361 8.87577 30.2655 8.86581C30.0912 8.86283 30.0394 8.92457 30.0533 9.09186C30.0852 9.45732 30.1071 9.82378 30.129 10.1902C30.1958 11.2687 30.2605 12.3471 30.3262 13.4256C30.4208 14.9721 30.5154 16.5186 30.611 18.065C30.7026 19.5438 30.7942 21.0216 30.8888 22.5004C30.9307 23.1516 30.9735 23.8019 31.0292 24.4521C31.0541 24.7439 31.2931 24.95 31.5739 24.96C31.8787 24.9709 32.1186 24.7957 32.1814 24.4999C32.2063 24.3814 32.2093 24.2569 32.2093 24.1355C32.2103 21.6619 32.2103 19.1873 32.2103 16.7137L32.2113 16.7127Z" fill="#818369"/>
</svg>