<svg xmlns="http://www.w3.org/2000/svg" width="20" height="17" viewBox="0 0 20 17" fill="none">
<path d="M19.9581 5.73L18.5281 0.73C18.47 0.520086 18.3446 0.335031 18.1712 0.203182C17.9978 0.0713329 17.786 -3.87152e-05 17.5681 1.57551e-08H2.42814C1.97814 1.57551e-08 1.58814 0.3 1.46814 0.73L0.038136 5.73C-0.141864 6.36 0.338136 7 0.998136 7H3.19814L2.14814 14.88C2.12695 15.0106 2.13217 15.1441 2.1635 15.2726C2.19483 15.4011 2.25162 15.5221 2.33052 15.6283C2.40942 15.7344 2.50882 15.8237 2.62284 15.8908C2.73686 15.9579 2.86317 16.0014 2.99431 16.0188C3.12545 16.0362 3.25875 16.0271 3.38632 15.9921C3.51388 15.957 3.63312 15.8968 3.73697 15.8148C3.84083 15.7329 3.92719 15.6309 3.99094 15.515C4.0547 15.3991 4.09455 15.2716 4.10814 15.14L4.66814 11H15.3381L15.8881 15.14C15.9216 15.3769 16.0389 15.5939 16.2187 15.7517C16.3985 15.9095 16.6289 15.9976 16.8681 16C17.4681 16 17.9281 15.47 17.8481 14.88L16.7981 7H18.9981C19.6581 7 20.1381 6.36 19.9581 5.73ZM4.92814 9L5.19814 7H14.7981L15.0681 9H4.92814Z" fill="#5D6679"/>
</svg>